<svg width="242" height="42" viewBox="0 0 242 42" fill="none" xmlns="http://www.w3.org/2000/svg">
<path d="M16 37C13.8333 37 11.7604 36.5781 9.78125 35.7344C7.80208 34.8906 6.09896 33.7552 4.67188 32.3281C3.24479 30.901 2.10938 29.1979 1.26562 27.2188C0.421875 25.2396 0 23.1667 0 21C0 18.8333 0.421875 16.7604 1.26562 14.7812C2.10938 12.8021 3.24479 11.099 4.67188 9.67188C6.09896 8.24479 7.80208 7.10938 9.78125 6.26562C11.7604 5.42188 13.8333 5 16 5C18.1667 5 20.2396 5.42188 22.2188 6.26562C24.1979 7.10938 25.901 8.24479 27.3281 9.67188C28.7552 11.099 29.8906 12.8021 30.7344 14.7812C31.5781 16.7604 32 18.8333 32 21C32 23.1667 31.5781 25.2396 30.7344 27.2188C29.8906 29.1979 28.7552 30.901 27.3281 32.3281C25.901 33.7552 24.1979 34.8906 22.2188 35.7344C20.2396 36.5781 18.1667 37 16 37ZM25.125 13.2188L23.6875 14.625C24.7708 15.9167 25.474 17.3854 25.7969 19.0312C26.1198 20.6771 26.0521 22.2708 25.5938 23.8125C25.8646 24.1667 26 24.5625 26 25C26 25.5625 25.8021 26.0365 25.4062 26.4219C25.0104 26.8073 24.5417 27 24 27C23.6667 27.4167 23.3542 27.7708 23.0625 28.0625C21.5208 29.6042 19.6719 30.5417 17.5156 30.875C15.3594 31.2083 13.3542 30.8958 11.5 29.9375C11.1042 29.8333 10.7708 29.625 10.5 29.3125C10.4583 29.2917 10.3854 29.25 10.2812 29.1875C10.1771 29.125 10.0938 29.0729 10.0312 29.0312C9.71875 28.8021 9.30208 28.349 8.78125 27.6719C8.26042 26.9948 8 26.4375 8 26C8 25.7292 8.09896 25.4948 8.29688 25.2969C8.49479 25.099 8.72917 25 9 25C9.27083 25 9.50521 25.099 9.70312 25.2969C9.90104 25.4948 10 25.7292 10 26C10.0417 26.2292 10.1875 26.4792 10.4375 26.75C10.8542 26.25 11.375 26 12 26C12.5625 26 13.0365 26.1979 13.4219 26.5938C13.8073 26.9896 14 27.4583 14 28C14 28.2292 13.9583 28.4688 13.875 28.7188C15.1875 29.0938 16.5521 29.1042 17.9688 28.75C19.3854 28.3958 20.6146 27.6979 21.6562 26.6562C21.7396 26.5729 21.9375 26.3333 22.25 25.9375C22.0833 25.6458 22 25.3333 22 25C22 24.5 22.1615 24.0625 22.4844 23.6875C22.8073 23.3125 23.2188 23.0938 23.7188 23.0312C24.0312 21.8646 24.0625 20.6615 23.8125 19.4219C23.5625 18.1823 23.0417 17.0625 22.25 16.0625L20.8438 17.5C21.6979 18.6458 22.0729 19.9583 21.9688 21.4375C21.8646 22.9167 21.2917 24.1875 20.25 25.25C20.2083 25.2917 20.151 25.3385 20.0781 25.3906C20.0052 25.4427 19.9583 25.4792 19.9375 25.5C19.8125 25.9375 19.5729 26.2969 19.2188 26.5781C18.8646 26.8594 18.4583 27 18 27C17.75 27 17.5 26.9479 17.25 26.8438C15.75 27.1562 14.3438 26.9479 13.0312 26.2188C12.3229 25.8229 11.6406 25.25 10.9844 24.5C10.3281 23.75 10 22.9167 10 22C10 21.7292 10.099 21.4948 10.2969 21.2969C10.4948 21.099 10.7292 21 11 21C11.2708 21 11.5052 21.099 11.7031 21.2969C11.901 21.4948 12 21.7292 12 22C12 22.4375 12.3177 22.9531 12.9531 23.5469C13.5885 24.1406 14.0729 24.5208 14.4062 24.6875C14.9062 24.8958 15.4375 25 16 25C16 24.4375 16.1979 23.9635 16.5938 23.5781C16.9896 23.1927 17.4583 23 18 23C18.4375 23 18.8333 23.1354 19.1875 23.4062C19.6875 22.7396 19.9531 22 19.9844 21.1875C20.0156 20.375 19.8229 19.6146 19.4062 18.9062L17.9062 20.4062C17.9688 20.6146 18 20.8125 18 21C18 21.5625 17.8073 22.0365 17.4219 22.4219C17.0365 22.8073 16.5677 23 16.0156 23C15.4635 23 14.9896 22.8073 14.5938 22.4219C14.1979 22.0365 14 21.5677 14 21.0156C14 20.4635 14.1979 19.9896 14.5938 19.5938C14.9896 19.1979 15.4583 19 16 19C16.1667 19 16.3438 19.0312 16.5312 19.0938L23.75 11.8438C21.5208 9.94792 18.9375 9 16 9C13.8333 9 11.8281 9.53646 9.98438 10.6094C8.14062 11.6823 6.68229 13.1406 5.60938 14.9844C4.53646 16.8281 4 18.8333 4 21C4 23.1667 4.53646 25.1719 5.60938 27.0156C6.68229 28.8594 8.14062 30.3177 9.98438 31.3906C11.8281 32.4635 13.8333 33 16 33C18.1667 33 20.1719 32.4635 22.0156 31.3906C23.8594 30.3177 25.3177 28.8594 26.3906 27.0156C27.4635 25.1719 28 23.1667 28 21C28 18.0417 27.0417 15.4479 25.125 13.2188Z" fill="#1875E8"/>
<path d="M56.6477 16.4205H61.3636C61.2955 12.2727 57.8864 9.40909 52.7045 9.40909C47.6023 9.40909 43.8636 12.2273 43.8864 16.4545C43.875 19.8864 46.2955 21.8523 50.2273 22.7955L52.7614 23.4318C55.2955 24.0455 56.7045 24.7727 56.7159 26.3409C56.7045 28.0455 55.0909 29.2045 52.5909 29.2045C50.0341 29.2045 48.1932 28.0227 48.0341 25.6932H43.2727C43.3977 30.7273 47 33.3295 52.6477 33.3295C58.3295 33.3295 61.6705 30.6136 61.6818 26.3523C61.6705 22.4773 58.75 20.4205 54.7045 19.5114L52.6136 19.0114C50.5909 18.5455 48.8977 17.7955 48.9318 16.125C48.9318 14.625 50.2614 13.5227 52.6705 13.5227C55.0227 13.5227 56.4659 14.5909 56.6477 16.4205ZM72.7869 33.3409C77.4347 33.3409 80.3551 30.6136 80.5824 26.6023H76.0142C75.7301 28.4659 74.5028 29.5114 72.8438 29.5114C70.5824 29.5114 69.1165 27.6136 69.1165 24.2727C69.1165 20.9773 70.5938 19.0909 72.8438 19.0909C74.6165 19.0909 75.7528 20.2614 76.0142 22H80.5824C80.3778 17.9659 77.321 15.3182 72.7642 15.3182C67.4688 15.3182 64.196 18.9886 64.196 24.3409C64.196 29.6477 67.4119 33.3409 72.7869 33.3409ZM94.875 25.5682C94.8864 27.9091 93.2841 29.1364 91.5455 29.1364C89.7159 29.1364 88.5341 27.8523 88.5227 25.7955V15.5455H83.6818V26.6591C83.6932 30.7386 86.0795 33.2273 89.5909 33.2273C92.2159 33.2273 94.1023 31.875 94.8864 29.8295H95.0682V33H99.7159V15.5455H94.875V25.5682ZM103.679 33H108.452V30.2045H108.668C109.338 31.6591 110.804 33.2841 113.622 33.2841C117.599 33.2841 120.702 30.1364 120.702 24.2955C120.702 18.2955 117.463 15.3182 113.634 15.3182C110.713 15.3182 109.315 17.0568 108.668 18.4773H108.52V9.72727H103.679V33ZM108.418 24.2727C108.418 21.1591 109.736 19.1705 112.088 19.1705C114.486 19.1705 115.759 21.25 115.759 24.2727C115.759 27.3182 114.463 29.4318 112.088 29.4318C109.759 29.4318 108.418 27.3864 108.418 24.2727ZM128.909 33.3295C131.489 33.3295 133.159 32.2045 134.011 30.5795H134.148V33H138.739V21.2273C138.739 17.0682 135.216 15.3182 131.33 15.3182C127.148 15.3182 124.398 17.3182 123.727 20.5L128.205 20.8636C128.534 19.7045 129.568 18.8523 131.307 18.8523C132.955 18.8523 133.898 19.6818 133.898 21.1136V21.1818C133.898 22.3068 132.705 22.4545 129.67 22.75C126.216 23.0682 123.114 24.2273 123.114 28.125C123.114 31.5795 125.58 33.3295 128.909 33.3295ZM130.295 29.9886C128.807 29.9886 127.739 29.2955 127.739 27.9659C127.739 26.6023 128.864 25.9318 130.568 25.6932C131.625 25.5455 133.352 25.2955 133.932 24.9091V26.7614C133.932 28.5909 132.42 29.9886 130.295 29.9886ZM157.641 24.1719L160.312 33H164.219L164.234 32.7812L161.125 23.3125C161.844 23.0208 162.5 22.6823 163.094 22.2969C163.688 21.901 164.208 21.4427 164.656 20.9219C165.104 20.3906 165.464 19.8021 165.734 19.1562C166.005 18.5 166.172 17.776 166.234 16.9844C166.328 15.901 166.214 14.9479 165.891 14.125C165.568 13.2917 165.094 12.5938 164.469 12.0312C163.854 11.4792 163.109 11.0521 162.234 10.75C161.359 10.4479 160.411 10.2865 159.391 10.2656L152.594 10.25L148.641 33H152.312L153.828 24.1719H157.641ZM154.359 21.1094L155.719 13.3125L159.266 13.3281C159.828 13.349 160.328 13.4531 160.766 13.6406C161.203 13.8177 161.562 14.0677 161.844 14.3906C162.125 14.7135 162.323 15.1094 162.438 15.5781C162.562 16.0365 162.589 16.5573 162.516 17.1406C162.443 17.776 162.26 18.3438 161.969 18.8438C161.677 19.3438 161.312 19.7604 160.875 20.0938C160.427 20.4375 159.922 20.6979 159.359 20.875C158.797 21.0521 158.208 21.1406 157.594 21.1406L154.359 21.1094ZM178.109 33H181.75L181.766 32.7188C181.589 32.1354 181.51 31.5417 181.531 30.9375C181.562 30.3229 181.625 29.7135 181.719 29.1094L182.953 21.5938C183.047 20.6562 182.948 19.8281 182.656 19.1094C182.375 18.3906 181.958 17.7865 181.406 17.2969C180.844 16.8073 180.177 16.4375 179.406 16.1875C178.635 15.9271 177.818 15.7865 176.953 15.7656C176.141 15.7552 175.312 15.8542 174.469 16.0625C173.635 16.2604 172.875 16.5729 172.188 17C171.49 17.4375 170.906 17.9896 170.438 18.6562C169.979 19.3125 169.714 20.0885 169.641 20.9844L173.281 20.9688C173.365 20.5729 173.505 20.2292 173.703 19.9375C173.901 19.6354 174.146 19.3906 174.438 19.2031C174.719 18.9948 175.042 18.8438 175.406 18.75C175.771 18.6562 176.156 18.6146 176.562 18.625C177.021 18.6354 177.432 18.7083 177.797 18.8438C178.161 18.9688 178.464 19.1562 178.703 19.4062C178.953 19.6562 179.13 19.9635 179.234 20.3281C179.349 20.6823 179.375 21.0885 179.312 21.5469L179.109 22.7188L176.344 22.6875C175.708 22.6875 175.068 22.7292 174.422 22.8125C173.776 22.8854 173.151 23.0104 172.547 23.1875C171.943 23.3646 171.37 23.599 170.828 23.8906C170.286 24.1719 169.812 24.526 169.406 24.9531C168.99 25.3802 168.651 25.8802 168.391 26.4531C168.141 27.0156 168 27.6667 167.969 28.4062C167.927 29.1562 168.036 29.8333 168.297 30.4375C168.557 31.0312 168.927 31.5365 169.406 31.9531C169.865 32.3802 170.411 32.7135 171.047 32.9531C171.682 33.1823 172.354 33.3021 173.062 33.3125C173.698 33.3229 174.297 33.25 174.859 33.0938C175.432 32.9375 175.974 32.7135 176.484 32.4219C176.745 32.276 177 32.1094 177.25 31.9219C177.5 31.724 177.745 31.5208 177.984 31.3125C177.964 31.6042 177.958 31.8854 177.969 32.1562C177.979 32.4271 178.026 32.7083 178.109 33ZM173.938 30.3281C173.583 30.3177 173.255 30.2656 172.953 30.1719C172.661 30.0677 172.411 29.9219 172.203 29.7344C171.995 29.5469 171.844 29.3125 171.75 29.0312C171.656 28.7396 171.63 28.4062 171.672 28.0312C171.714 27.7083 171.792 27.4167 171.906 27.1562C172.031 26.8958 172.177 26.6667 172.344 26.4688C172.521 26.2708 172.724 26.099 172.953 25.9531C173.182 25.7969 173.422 25.6615 173.672 25.5469C174.13 25.3594 174.62 25.2292 175.141 25.1562C175.661 25.0833 176.161 25.0469 176.641 25.0469L178.781 25.0625L178.219 28.2031C177.979 28.5052 177.714 28.7812 177.422 29.0312C177.141 29.2812 176.844 29.4948 176.531 29.6719C176.146 29.8906 175.734 30.0573 175.297 30.1719C174.859 30.2865 174.406 30.3385 173.938 30.3281ZM187.266 24.5156L187.219 24.8594C187.156 25.474 187.141 26.1042 187.172 26.75C187.203 27.3958 187.286 28.026 187.422 28.6406C187.568 29.2656 187.771 29.8594 188.031 30.4219C188.292 30.974 188.625 31.4583 189.031 31.875C189.438 32.3021 189.922 32.6458 190.484 32.9062C191.057 33.1562 191.714 33.2917 192.453 33.3125C193.005 33.3229 193.526 33.2656 194.016 33.1406C194.516 33.0156 194.979 32.8333 195.406 32.5938C195.708 32.4167 196 32.2188 196.281 32C196.562 31.7708 196.833 31.5156 197.094 31.2344L196.828 33H200.109L204.281 9H200.625L199 17.7031C198.802 17.4531 198.594 17.2292 198.375 17.0312C198.156 16.8333 197.922 16.6615 197.672 16.5156C197.286 16.2865 196.865 16.1094 196.406 15.9844C195.958 15.8594 195.49 15.7917 195 15.7812C194.188 15.7604 193.443 15.8646 192.766 16.0938C192.099 16.3229 191.495 16.6406 190.953 17.0469C190.411 17.4635 189.927 17.9583 189.5 18.5312C189.083 19.0938 188.724 19.7031 188.422 20.3594C188.12 21.0156 187.87 21.6979 187.672 22.4062C187.484 23.1146 187.349 23.8177 187.266 24.5156ZM190.875 24.8594L190.906 24.5312C190.99 23.8646 191.135 23.1927 191.344 22.5156C191.562 21.8385 191.865 21.224 192.25 20.6719C192.625 20.1198 193.094 19.6719 193.656 19.3281C194.219 18.9844 194.891 18.8177 195.672 18.8281C196.026 18.8385 196.349 18.8906 196.641 18.9844C196.943 19.0781 197.214 19.2135 197.453 19.3906C197.693 19.5573 197.901 19.7656 198.078 20.0156C198.266 20.2656 198.427 20.5521 198.562 20.875L197.281 28.1875C197.073 28.4688 196.849 28.7292 196.609 28.9688C196.37 29.2083 196.115 29.4167 195.844 29.5938C195.531 29.8125 195.188 29.9792 194.812 30.0938C194.438 30.1979 194.031 30.2448 193.594 30.2344C193.135 30.224 192.745 30.1354 192.422 29.9688C192.099 29.8021 191.828 29.5833 191.609 29.3125C191.411 29.0729 191.255 28.7969 191.141 28.4844C191.036 28.1719 190.953 27.8385 190.891 27.4844C190.818 27.0469 190.781 26.599 190.781 26.1406C190.792 25.6823 190.823 25.2552 190.875 24.8594ZM215.672 33H219.312L219.328 32.7188C219.151 32.1354 219.073 31.5417 219.094 30.9375C219.125 30.3229 219.188 29.7135 219.281 29.1094L220.516 21.5938C220.609 20.6562 220.51 19.8281 220.219 19.1094C219.938 18.3906 219.521 17.7865 218.969 17.2969C218.406 16.8073 217.74 16.4375 216.969 16.1875C216.198 15.9271 215.38 15.7865 214.516 15.7656C213.703 15.7552 212.875 15.8542 212.031 16.0625C211.198 16.2604 210.438 16.5729 209.75 17C209.052 17.4375 208.469 17.9896 208 18.6562C207.542 19.3125 207.276 20.0885 207.203 20.9844L210.844 20.9688C210.927 20.5729 211.068 20.2292 211.266 19.9375C211.464 19.6354 211.708 19.3906 212 19.2031C212.281 18.9948 212.604 18.8438 212.969 18.75C213.333 18.6562 213.719 18.6146 214.125 18.625C214.583 18.6354 214.995 18.7083 215.359 18.8438C215.724 18.9688 216.026 19.1562 216.266 19.4062C216.516 19.6562 216.693 19.9635 216.797 20.3281C216.911 20.6823 216.938 21.0885 216.875 21.5469L216.672 22.7188L213.906 22.6875C213.271 22.6875 212.63 22.7292 211.984 22.8125C211.339 22.8854 210.714 23.0104 210.109 23.1875C209.505 23.3646 208.932 23.599 208.391 23.8906C207.849 24.1719 207.375 24.526 206.969 24.9531C206.552 25.3802 206.214 25.8802 205.953 26.4531C205.703 27.0156 205.562 27.6667 205.531 28.4062C205.49 29.1562 205.599 29.8333 205.859 30.4375C206.12 31.0312 206.49 31.5365 206.969 31.9531C207.427 32.3802 207.974 32.7135 208.609 32.9531C209.245 33.1823 209.917 33.3021 210.625 33.3125C211.26 33.3229 211.859 33.25 212.422 33.0938C212.995 32.9375 213.536 32.7135 214.047 32.4219C214.307 32.276 214.562 32.1094 214.812 31.9219C215.062 31.724 215.307 31.5208 215.547 31.3125C215.526 31.6042 215.521 31.8854 215.531 32.1562C215.542 32.4271 215.589 32.7083 215.672 33ZM211.5 30.3281C211.146 30.3177 210.818 30.2656 210.516 30.1719C210.224 30.0677 209.974 29.9219 209.766 29.7344C209.557 29.5469 209.406 29.3125 209.312 29.0312C209.219 28.7396 209.193 28.4062 209.234 28.0312C209.276 27.7083 209.354 27.4167 209.469 27.1562C209.594 26.8958 209.74 26.6667 209.906 26.4688C210.083 26.2708 210.286 26.099 210.516 25.9531C210.745 25.7969 210.984 25.6615 211.234 25.5469C211.693 25.3594 212.182 25.2292 212.703 25.1562C213.224 25.0833 213.724 25.0469 214.203 25.0469L216.344 25.0625L215.781 28.2031C215.542 28.5052 215.276 28.7812 214.984 29.0312C214.703 29.2812 214.406 29.4948 214.094 29.6719C213.708 29.8906 213.297 30.0573 212.859 30.1719C212.422 30.2865 211.969 30.3385 211.5 30.3281ZM237.922 15.75C237.307 15.75 236.724 15.8229 236.172 15.9688C235.62 16.1146 235.094 16.3229 234.594 16.5938C234.104 16.8646 233.641 17.1927 233.203 17.5781C232.766 17.9531 232.354 18.3698 231.969 18.8281L232.078 18.2344L232.422 16.0938H229.016L226.078 33H229.719L231.531 22.5469C231.833 22.0365 232.167 21.5833 232.531 21.1875C232.906 20.7917 233.318 20.4688 233.766 20.2188C234.203 19.9688 234.682 19.7812 235.203 19.6562C235.724 19.5208 236.281 19.4583 236.875 19.4688C237.417 19.4792 237.948 19.5208 238.469 19.5938C239 19.6667 239.526 19.7656 240.047 19.8906L241.016 16.2031C240.505 16.0469 239.99 15.9375 239.469 15.875C238.958 15.8021 238.443 15.7604 237.922 15.75Z" fill="#1875E8"/>
</svg>
