<svg width="332" height="532" viewBox="0 0 332 532" fill="none" xmlns="http://www.w3.org/2000/svg">
<g opacity="0.6">
<path opacity="0.6" d="M33.986 383.858C24.7432 383.858 16.9255 380.938 11.2789 375.418L10.7833 374.975L16.5518 349.971C17.1117 347.561 19.1582 345.846 21.64 345.846H35.5986C38.0804 345.846 40.1282 347.561 40.6854 350.034L47.5723 381.891L46.5182 382.208C46.2691 382.271 41.0591 383.921 34.1106 383.921C34.0476 383.858 34.0476 383.858 33.986 383.858ZM13.3896 374.087C24.3696 384.303 40.5006 381.13 44.7811 380.051L38.3295 350.416C38.0188 349.083 36.9018 348.131 35.537 348.131H21.5797C20.2765 348.131 19.0979 349.083 18.7872 350.352L13.3896 374.085V374.087Z" fill="#167BF7" fill-opacity="0.25"/>
<path opacity="0.6" d="M31.3823 381.383H25.7055C22.3492 381.383 19.6629 378.766 19.6629 375.497V346.657C19.6629 343.386 22.3492 340.77 25.7068 340.77H31.3823C34.7385 340.77 37.4235 343.386 37.4235 346.657V375.497C37.4235 378.766 34.6769 381.383 31.3823 381.383ZM25.7055 343.089C23.6301 343.089 21.9822 344.695 21.9822 346.716V375.497C21.9822 377.518 23.6301 379.123 25.7055 379.123H31.3823C33.4563 379.123 35.1056 377.518 35.1056 375.497V346.657C35.1056 344.636 33.4563 343.029 31.3823 343.029H25.7055V343.089ZM365.092 383.858C355.849 383.858 348.032 380.938 342.385 375.418L341.89 374.975L347.659 349.971C348.218 347.561 350.266 345.846 352.746 345.846H366.706C369.188 345.846 371.234 347.561 371.793 350.034L378.68 381.891L377.624 382.208C377.377 382.271 372.165 383.921 365.217 383.921C365.217 383.858 365.155 383.858 365.092 383.858ZM344.496 374.087C355.477 384.303 371.608 381.13 375.887 380.051L369.436 350.416C369.125 349.083 368.009 348.131 366.643 348.131H352.685C351.381 348.131 350.203 349.083 349.892 350.352L344.496 374.085V374.087Z" fill="#167BF7" fill-opacity="0.25"/>
<path opacity="0.6" d="M361.22 381.383H355.543C352.186 381.383 349.501 378.766 349.501 375.497V346.657C349.501 343.386 352.186 340.77 355.544 340.77H361.221C364.577 340.77 367.262 343.386 367.262 346.657V375.497C367.262 378.766 364.515 381.383 361.22 381.383ZM355.543 343.089C353.469 343.089 351.821 344.695 351.821 346.716V375.497C351.821 377.518 353.469 379.123 355.544 379.123H361.221C363.295 379.123 364.944 377.518 364.944 375.497V346.657C364.944 344.636 363.295 343.029 361.221 343.029H355.544V343.089H355.543ZM192.194 635.216H191.027C129.448 635.216 81.8061 617.096 49.5742 581.35C26.0595 555.308 10.8331 520.176 4.2648 476.873C-1.07767 441.802 0.457551 408.819 2.66796 387.262C3.21922 381.816 5.77392 376.77 9.8358 373.104C13.8977 369.438 19.1767 367.413 24.6475 367.422H30.1119C35.6366 367.422 40.9175 369.08 45.4602 372.214L53.8102 377.987L192.194 422.025V635.216ZM24.6475 369.694C14.4555 369.694 6.04388 377.311 5.00161 387.445C2.7912 408.819 1.31759 441.68 6.59714 476.443C13.0435 519.316 28.085 554.079 51.293 579.753C82.9113 614.763 129.509 632.636 189.862 632.881V423.745L52.7666 380.075L44.1098 374.117C39.9958 371.231 35.0847 369.757 30.0503 369.757H24.6475V369.695V369.694Z" fill="#167BF7" fill-opacity="0.25"/>
<path opacity="0.6" d="M192.093 635.216H190.926V422.023L191.723 421.778L329.31 377.986L337.659 372.212C342.167 369.085 347.523 367.413 353.008 367.421H358.473C363.943 367.411 369.222 369.436 373.284 373.103C377.346 376.769 379.9 381.815 380.451 387.26C382.661 408.818 384.197 441.801 378.856 476.872C372.287 520.174 356.999 555.306 333.546 581.348C301.253 617.095 253.671 635.215 192.092 635.215L192.093 635.216ZM193.259 423.745V632.881C253.61 632.636 300.209 614.763 331.827 579.753C354.972 554.079 370.076 519.314 376.584 476.505C381.864 441.68 380.391 408.881 378.18 387.507C377.69 382.637 375.408 378.123 371.777 374.843C368.146 371.563 363.426 369.75 358.533 369.757H353.008C347.974 369.757 343.123 371.292 338.949 374.117L330.292 380.075L330.109 380.137L193.259 423.745Z" fill="#167BF7" fill-opacity="0.25"/>
<path opacity="0.6" d="M275.981 626.333C269.583 626.333 263.431 622.877 260.262 616.938L215.789 532.882C213.595 528.7 213.168 523.973 214.57 519.427C215.261 517.216 216.38 515.163 217.865 513.385C219.349 511.607 221.169 510.139 223.221 509.066C231.873 504.52 242.594 507.852 247.163 516.458L291.638 600.515C296.208 609.119 292.857 619.786 284.205 624.331C281.661 625.639 278.842 626.325 275.981 626.331V626.333ZM231.445 509.307C229.008 509.307 226.572 509.853 224.317 511.064C222.517 511.985 220.92 513.26 219.622 514.811C218.325 516.362 217.352 518.159 216.763 520.094C215.544 524.034 215.911 528.155 217.859 531.791L262.333 615.848C266.293 623.302 275.614 626.209 283.109 622.271C290.602 618.332 293.527 609.06 289.566 601.605L245.092 517.549C242.352 512.276 236.99 509.307 231.445 509.307ZM275.981 617.12C275.135 617.123 274.293 617 273.482 616.757C271.289 616.089 269.523 614.636 268.487 612.636L224.013 528.578C222.977 526.578 222.733 524.337 223.403 522.154C223.722 521.089 224.254 520.099 224.966 519.246C225.678 518.392 226.556 517.691 227.546 517.186C229.532 516.138 231.852 515.919 233.998 516.578C236.145 517.237 237.943 518.719 238.999 520.701L283.474 604.757C285.667 608.878 284.083 613.968 279.94 616.151C278.719 616.79 277.36 617.123 275.981 617.12ZM231.507 518.518C230.507 518.522 229.524 518.772 228.644 519.246C227.93 519.625 227.299 520.141 226.787 520.765C226.275 521.389 225.891 522.109 225.658 522.882C225.171 524.457 225.291 526.094 226.084 527.549L270.559 611.603C272.142 614.573 275.859 615.724 278.905 614.148C281.89 612.574 283.048 608.876 281.464 605.845L236.99 521.79C235.832 519.73 233.699 518.517 231.507 518.517V518.518Z" fill="#167BF7" fill-opacity="0.25"/>
<path opacity="0.6" d="M308.842 608.563C303.485 608.563 298.25 606.202 294.679 601.602L235.314 524.784C229.218 516.954 230.634 505.579 238.392 499.427C242.15 496.443 246.829 495.138 251.571 495.759C256.313 496.381 260.562 498.742 263.518 502.595L322.882 579.415C324.343 581.278 325.417 583.414 326.041 585.698C326.665 587.982 326.827 590.368 326.516 592.715C325.9 597.501 323.561 601.789 319.742 604.772C316.602 607.32 312.722 608.563 308.842 608.563ZM249.416 497.934C245.968 497.934 242.641 499.053 239.871 501.229C233.097 506.574 231.865 516.457 237.161 523.293L296.525 600.111C301.822 606.947 311.614 608.19 318.388 602.846C321.652 600.297 323.745 596.568 324.238 592.404C324.731 588.24 323.622 584.138 321.098 580.843L261.733 504.025C260.491 502.398 258.935 501.038 257.158 500.024C255.381 499.01 253.418 498.363 251.386 498.122C250.737 497.994 250.077 497.932 249.416 497.934ZM308.842 599.117C307.538 599.116 306.25 598.818 305.077 598.248C303.904 597.677 302.875 596.848 302.068 595.822L242.704 519.004C242.003 518.107 241.489 517.078 241.192 515.979C240.896 514.879 240.823 513.731 240.979 512.603C241.287 510.302 242.395 508.251 244.182 506.821C245.065 506.115 246.083 505.597 247.174 505.298C248.265 504.999 249.405 504.925 250.525 505.082C252.803 505.393 254.835 506.512 256.251 508.314L315.616 585.132C318.511 588.861 317.833 594.331 314.139 597.252C312.538 598.495 310.691 599.117 308.842 599.117ZM249.478 507.381C248.095 507.377 246.751 507.836 245.659 508.687C244.367 509.744 243.504 511.172 243.319 512.851C243.123 514.514 243.587 516.188 244.612 517.512L303.915 594.331C304.415 594.98 305.038 595.524 305.748 595.932C306.459 596.34 307.243 596.604 308.055 596.708C308.868 596.812 309.693 596.754 310.483 596.538C311.273 596.322 312.013 595.952 312.66 595.45C315.37 593.337 315.863 589.358 313.769 586.624L254.404 509.805C253.357 508.5 251.941 507.629 250.278 507.444C249.97 507.381 249.724 507.381 249.478 507.381ZM118.539 631.409C115.737 631.409 112.874 630.742 110.315 629.349C106.111 627.168 103.065 623.473 101.663 618.99C100.967 616.78 100.717 614.453 100.926 612.145C101.135 609.837 101.8 607.593 102.882 605.544L147.357 521.53C151.926 512.928 162.649 509.597 171.299 514.14C179.95 518.684 183.301 529.343 178.732 537.946L134.258 621.958C132.065 626.139 128.348 629.167 123.839 630.56C122.073 631.106 120.306 631.409 118.539 631.409ZM163.075 514.443C157.53 514.443 152.169 517.411 149.427 522.62L104.954 606.634C103.066 610.268 102.638 614.388 103.856 618.324C105.076 622.261 107.755 625.412 111.412 627.35C115.067 629.288 119.21 629.651 123.169 628.439C127.129 627.228 130.297 624.563 132.247 620.929L176.721 536.915C180.681 529.465 177.757 520.137 170.263 516.26C167.948 515.049 165.512 514.443 163.075 514.443ZM118.539 622.201C117.16 622.205 115.801 621.872 114.579 621.232C113.589 620.727 112.711 620.027 111.999 619.173C111.287 618.319 110.755 617.33 110.436 616.265C109.767 614.085 109.949 611.843 111.046 609.844L155.52 525.831C157.714 521.712 162.831 520.137 166.974 522.317C171.117 524.498 172.7 529.586 170.507 533.705L126.033 617.719C124.571 620.566 121.586 622.201 118.539 622.201ZM163.075 523.649C160.881 523.649 158.688 524.861 157.592 526.921L113.116 610.934C112.324 612.389 112.202 614.025 112.689 615.598C113.177 617.174 114.274 618.445 115.674 619.233C118.659 620.807 122.438 619.657 124.021 616.688L168.496 532.675C170.079 529.708 168.922 525.951 165.937 524.377C165.056 523.903 164.073 523.653 163.073 523.649H163.075ZM47.5723 462.61H28.7183C17.4565 462.61 8.24642 453.819 8.24642 442.938C8.24642 432.115 17.3935 423.265 28.7183 423.265H47.5723V425.537H28.7183C18.7622 425.537 10.6102 433.311 10.6102 442.938C10.6102 452.565 18.6993 460.338 28.7183 460.338H47.5723V462.61Z" fill="#167BF7" fill-opacity="0.25"/>
<path opacity="0.6" d="M47.5723 466.417H28.7183C17.4565 466.417 8.24642 457.614 8.24642 446.716C8.24642 435.816 17.3935 427.073 28.7183 427.073H47.5723V429.349H28.7183C18.7622 429.349 10.6102 437.133 10.6102 446.775C10.6102 456.416 18.6993 464.201 28.7183 464.201H47.5723V466.417ZM78.0198 564.143H59.1645C47.9027 564.143 38.6926 555.352 38.6926 544.471C38.6926 533.589 47.8397 524.798 59.1645 524.798H78.0198V527.07H59.1645C49.2085 527.07 41.0577 534.844 41.0577 544.471C41.0577 554.098 49.1468 561.871 59.1645 561.871H78.0198V564.143Z" fill="#167BF7" fill-opacity="0.25"/>
<path opacity="0.6" d="M109.673 567.95H60.1766C49.0197 567.95 39.9604 559.16 39.9604 548.277C39.9604 537.395 49.0197 528.606 60.2382 528.606H78.9152V530.878H60.2395C50.3779 530.878 42.3045 538.652 42.3045 548.277C42.3045 557.905 50.3163 565.677 60.2395 565.677H109.735V567.95H109.673Z" fill="#167BF7" fill-opacity="0.25"/>
<path opacity="0.6" d="M194.783 594.602H190.913V594.54C143.253 593.743 105.604 578.038 78.9493 547.915C49.8364 515.033 39.3953 470.616 35.7113 439.144C31.7179 405.094 34.6664 378.408 34.6664 378.162L34.7897 377.119H68.1385L190.914 371.475V371.23L193.432 371.353L195.95 371.23V371.475L318.786 377.119H352.137L352.26 378.162C352.26 378.408 355.207 405.094 351.215 439.144C347.531 470.616 337.028 515.033 307.977 547.915C281.321 578.1 243.61 593.743 196.012 594.54L194.783 594.602ZM193.433 592.271H194.782C242.259 591.719 279.784 576.259 306.194 546.382C322.04 528.468 342.247 495.34 348.88 438.898C352.38 408.836 350.538 384.604 350.047 379.389H318.785L193.677 373.622H193.308L192.202 373.684L68.2604 379.389H36.9385C36.4468 384.604 34.5432 408.836 38.1053 438.897C41.729 470.002 52.1085 513.928 80.7913 546.382C107.201 576.259 144.728 591.719 192.203 592.271H193.432H193.433Z" fill="#167BF7" fill-opacity="0.25"/>
<path opacity="0.6" d="M195.974 580.641H192.298V580.58C148.1 579.843 113.158 565.226 88.3927 537.159C61.3591 506.511 51.6732 465.178 48.2396 435.882C44.5621 404.191 47.2589 379.316 47.2589 379.071L47.3822 378.027H78.4616L192.359 372.745V372.5L194.751 372.622L197.141 372.5V372.745L311.038 378.027H342.057L342.179 379.071C342.179 379.316 344.939 404.129 341.199 435.882C337.766 465.178 328.019 506.572 301.047 537.159C276.281 565.226 241.34 579.843 197.141 580.58L195.976 580.641H195.974ZM194.688 578.307H195.913C239.989 577.816 274.746 563.445 299.268 535.623C313.98 518.979 332.738 488.086 338.869 435.574C342.118 407.753 340.4 385.335 339.91 380.36H310.975L194.749 375.017H194.626L78.4603 380.36H49.4641C48.9738 385.335 47.2576 407.813 50.5064 435.636C53.8784 464.624 63.5027 505.467 90.1076 535.623C114.628 563.445 149.386 577.755 193.462 578.308H194.688V578.307ZM300.945 94.5526L299.108 93.1728L314.725 71.3528L304.558 60.8823L283.674 76.9337L282.265 74.9899L304.741 57.7475L317.786 71.1023L300.945 94.5526Z" fill="#167BF7" fill-opacity="0.25"/>
<path opacity="0.6" d="M313.55 71.7083C310.878 71.7083 308.682 70.9397 307.079 69.4051C303.221 65.8047 303.873 59.311 303.873 59.0172L306.128 59.2532L305.001 59.1352L306.128 59.2532C306.128 59.311 305.536 64.9194 308.622 67.7525C310.284 69.2871 312.778 69.7592 316.103 69.228L316.518 71.4119C315.391 71.5902 314.44 71.7083 313.55 71.7083ZM216.089 368.676C203.894 368.676 195.393 368.493 194.654 368.493C193.361 368.493 169.833 369.045 143.471 368.309C107.194 367.265 83.1106 364.44 72.0244 359.896L70.5469 359.282L72.2709 357.194C75.968 352.713 77.3223 346.635 75.9051 340.986L46.7122 225.614C41.5992 205.351 41.1076 183.983 45.4183 163.845C50.0383 141.924 60.5083 110.487 83.9129 85.4369C110.46 56.9461 147.722 42.5171 194.718 42.5171H194.779C241.712 42.5171 279.037 56.9461 305.583 85.4356C328.988 110.487 339.397 141.924 344.078 163.844C348.328 183.983 347.897 205.351 342.722 225.614L313.466 340.986C312.05 346.635 313.405 352.651 317.1 357.194L318.824 359.282L317.347 359.896C306.261 364.44 282.178 367.265 245.901 368.309C235.06 368.616 224.651 368.676 216.09 368.676H216.089ZM194.716 366.159C195.639 366.159 287.104 368.309 315.004 358.3C313.057 355.805 311.701 352.901 311.04 349.806C310.379 346.71 310.429 343.505 311.186 340.432L340.442 225.06C345.494 205.167 345.924 184.168 341.736 164.397C337.178 142.723 326.83 111.777 303.856 87.0935C277.742 59.0945 241.033 44.9121 194.778 44.9121C148.46 44.9121 111.751 59.0945 85.6985 87.0935C62.6636 111.778 52.3772 142.784 47.8188 164.397C43.6313 184.168 44.0626 205.167 49.1128 225.06L78.3685 340.432C79.9706 346.635 78.4918 353.265 74.5508 358.3C102.143 368.247 192.868 366.221 194.716 366.159C194.655 366.159 194.655 366.159 194.716 366.159V366.343V366.159Z" fill="#167BF7" fill-opacity="0.25"/>
<path opacity="0.6" d="M58.7122 269.637H37.4235V150.396H59.5237V150.456C68.2631 152.151 72.9448 181.915 72.9448 210.046C72.9448 238.178 68.2631 267.882 59.5237 269.637V269.697H59.2746C59.0858 269.637 58.8983 269.637 58.7109 269.637H58.7122ZM57.152 267.217L58.6492 267.398H58.7738C60.8977 267.398 64.1425 263.164 66.8275 251.185C69.2621 240.234 70.6347 225.595 70.6347 210.046C70.6347 194.498 69.2621 179.919 66.8275 168.908C64.1425 156.93 60.9593 152.695 58.7738 152.695H58.6492L57.1507 152.876V152.635H39.7965V267.337H57.1507V267.217H57.152Z" fill="#167BF7" fill-opacity="0.25"/>
<path opacity="0.6" d="M38.6926 269.697C29.6334 269.697 24.738 238.965 24.738 210.046C24.738 181.128 29.6347 150.396 38.6926 150.396C47.7519 150.396 52.6473 181.128 52.6473 210.046C52.6473 238.965 47.7506 269.697 38.6926 269.697ZM38.6926 152.754C36.612 152.754 33.4288 156.99 30.7976 168.968C28.4102 179.919 27.0637 194.559 27.0637 210.107C27.0637 225.654 28.4102 240.234 30.7976 251.245C33.4288 263.224 36.612 267.458 38.6926 267.458C40.7732 267.458 43.9564 263.224 46.5877 251.245C48.9738 240.295 50.3215 225.656 50.3215 210.107C50.3215 194.559 48.9751 179.979 46.5877 168.968C43.9564 156.99 40.8349 152.755 38.6926 152.755V152.754Z" fill="#167BF7" fill-opacity="0.25"/>
<path opacity="0.6" d="M37.8942 263.351C37.3344 263.351 36.7759 263.107 36.4652 262.62C33.6687 258.715 24.3486 244.441 20.3106 225.042C15.0913 200.033 20.5597 176.853 36.4652 156.175C36.6626 155.91 36.9306 155.707 37.2384 155.588C37.5461 155.469 37.8812 155.44 38.2049 155.503C38.888 155.625 39.3849 156.113 39.571 156.785C41.9951 165.507 53.4274 211.623 39.571 262.07C39.4785 262.397 39.295 262.691 39.0421 262.918C38.7891 263.145 38.477 263.295 38.142 263.351H37.8929H37.8942ZM37.6451 158.554C22.7334 178.439 17.7003 200.643 22.6718 224.554C26.2745 242.063 34.3531 255.238 37.708 260.179C50.3202 212.782 40.5032 169.472 37.6451 158.553V158.554Z" fill="#167BF7" fill-opacity="0.25"/>
<path opacity="0.6" d="M19.6629 203.701H48.8414V206.239H19.6629V203.701ZM43.7336 234.162L20.2267 214.156C19.7337 213.723 19.5489 212.983 19.7337 212.365C19.9802 211.749 20.5335 211.316 21.21 211.316H48.8414V213.661H23.2408L45.2111 232.308L43.7336 234.16V234.162Z" fill="#167BF7" fill-opacity="0.25"/>
<path opacity="0.6" d="M24.738 231.622H48.8414V234.16H24.738V231.622ZM41.2518 253.198L26.4633 239.219C26.2436 239.019 26.0935 238.754 26.035 238.463C25.9766 238.171 26.0127 237.869 26.1381 237.599C26.3977 237.059 26.9824 236.698 27.6301 236.698H48.8414V238.979H29.577L43.0033 251.578L41.2518 253.198ZM24.738 178.317H48.8414V180.855H24.738V178.317ZM45.0866 207.508L22.6468 187.068C22.2732 186.734 22.087 186.066 22.2732 185.531C22.3578 185.283 22.5164 185.067 22.7276 184.911C22.9388 184.756 23.1925 184.669 23.4544 184.663H47.5723V187.202H26.4384L46.6414 205.571L45.0866 207.508ZM63.7597 211.316L61.4771 211.194C63.6993 163.441 52.7679 150.832 52.6473 150.71L54.3294 149.126C54.8092 149.614 66.0409 162.283 63.7597 211.316ZM350.771 269.697H328.67V269.637C319.931 267.943 315.249 238.189 315.249 210.069C315.249 181.948 319.931 152.256 328.672 150.502V150.442H328.921C329.17 150.381 329.419 150.381 329.669 150.442H350.771V269.697ZM331.043 267.399H348.398V152.8H331.043V152.981L329.545 152.8H329.42C327.296 152.8 324.052 157.093 321.367 169.007C318.932 179.953 317.559 194.588 317.559 210.129C317.559 225.672 318.932 240.246 321.367 251.252C324.052 263.227 327.298 267.459 329.42 267.459H329.545L331.043 267.278V267.399Z" fill="#167BF7" fill-opacity="0.25"/>
<path opacity="0.6" d="M340.622 231.622H364.725V234.16H340.622V231.622ZM348.487 253.198L346.773 251.585L359.902 238.97H341.89V236.698H361.868C362.503 236.698 363.073 237.058 363.328 237.595C363.581 238.133 363.453 238.792 363.01 239.209L348.485 253.198H348.487ZM341.89 178.317H364.724V180.855H341.89V178.317ZM343.106 207.508L341.554 205.571L361.747 187.202H340.622V184.663H364.729C365.289 184.663 365.723 184.997 365.909 185.531C366.005 185.795 366.021 186.082 365.955 186.356C365.888 186.629 365.743 186.877 365.537 187.068L343.106 207.508ZM323.167 211.316C320.884 162.283 332.116 149.614 332.597 149.126L334.278 150.71L333.439 149.918L334.278 150.71C334.158 150.832 323.226 163.441 325.449 211.194L323.167 211.316ZM103.742 41.2475L96.8961 27.25C95.2888 23.8975 95.4081 20.0165 97.313 16.8411C101.599 9.66656 112.133 -1.92019 134.754 1.13848C138.563 1.66706 141.896 4.19584 143.444 7.72538L151.599 26.2505L103.741 41.2475H103.742ZM127.669 2.84357C111.002 2.84357 102.847 12.0183 99.3359 17.9586C98.5916 19.2127 98.1693 20.6318 98.1069 22.089C98.0444 23.5463 98.3437 24.9963 98.978 26.3096L104.93 38.6007L148.561 24.8983L141.419 8.60809C140.168 5.7842 137.55 3.78399 134.514 3.37215C132.014 3.01933 129.752 2.84357 127.669 2.84357ZM317.255 380.113H73.4757C68.2814 380.113 64.0651 375.956 64.0651 370.831V366.551C64.0651 361.428 68.2814 357.269 73.4757 357.269H317.255C322.449 357.269 326.667 361.428 326.667 366.551V370.831C326.667 375.954 322.449 380.113 317.255 380.113ZM73.4757 359.561C69.5649 359.561 66.387 362.694 66.387 366.551V370.831C66.387 374.689 69.5649 377.823 73.4757 377.823H317.255C321.166 377.823 324.344 374.689 324.344 370.833V366.551C324.344 362.694 321.166 359.561 317.255 359.561H73.4757Z" fill="#167BF7" fill-opacity="0.25"/>
<path opacity="0.6" d="M239.133 380.113H215.03V357.269H239.133V380.113ZM217.446 377.823H236.716V359.559H217.446V377.823Z" fill="#167BF7" fill-opacity="0.25"/>
<path opacity="0.6" d="M225.138 375.038H196V372.65H225.138C225.66 372.654 226.177 372.554 226.66 372.357C227.143 372.16 227.582 371.869 227.952 371.501C228.323 371.133 228.616 370.695 228.817 370.213C229.017 369.731 229.12 369.214 229.119 368.692C229.12 368.17 229.017 367.653 228.817 367.171C228.617 366.689 228.323 366.251 227.953 365.883C227.583 365.515 227.143 365.224 226.66 365.027C226.177 364.829 225.66 364.73 225.138 364.734H196V362.346H225.138C228.678 362.346 231.521 365.173 231.521 368.692C231.521 372.21 228.676 375.038 225.136 375.038H225.138ZM80.5567 357.269H83.0935V378.845H80.5567V357.269ZM86.8994 357.269H89.4363V378.845H86.8994V357.269ZM94.5113 357.269H97.0482V378.845H94.5113V357.269ZM197.902 320.463C143.671 320.463 99.5864 276.642 99.5864 222.737C99.5864 168.833 143.671 125.012 197.902 125.012C252.135 125.012 296.22 168.833 296.22 222.737C296.22 276.643 252.073 320.463 197.902 320.463ZM197.902 127.335C144.963 127.335 101.921 170.117 101.921 222.737C101.921 275.359 144.963 318.141 197.902 318.141C250.842 318.141 293.883 275.359 293.883 222.737C293.883 170.116 250.842 127.335 197.902 127.335Z" fill="#167BF7" fill-opacity="0.25"/>
<path opacity="0.6" d="M198.12 316.657C146.573 316.657 104.66 274.538 104.66 222.737C104.66 170.938 146.574 128.82 198.12 128.82C243.163 128.82 281.64 160.886 289.924 205.225H310.174V240.313H289.924C281.64 284.589 243.163 316.657 198.12 316.657ZM198.12 131.164C147.861 131.164 106.992 172.233 106.992 222.737C106.992 273.242 147.861 314.313 198.12 314.313C242.365 314.313 280.106 282.616 287.838 238.895L288.022 237.908H307.905V207.506H288.022L287.838 206.519C280.106 162.86 242.365 131.164 198.12 131.164Z" fill="#167BF7" fill-opacity="0.25"/>
<path opacity="0.6" d="M310.174 207.508H292.414V192.313C292.414 188.76 295.1 185.932 298.334 185.932H304.195C307.489 185.932 310.114 188.827 310.114 192.313V207.508H310.174ZM294.733 205.008H307.856V192.312C307.856 190.143 306.207 188.367 304.193 188.367H298.334C296.321 188.367 294.673 190.143 294.673 192.313V205.008H294.733ZM304.193 258.274H298.334C295.038 258.274 292.414 255.381 292.414 251.895V236.698H310.174V251.895C310.114 255.381 307.428 258.274 304.193 258.274ZM294.673 239.133V251.829C294.673 253.998 296.321 255.774 298.334 255.774H304.195C306.207 255.774 307.855 253.998 307.855 251.828V239.133H294.673Z" fill="#167BF7" fill-opacity="0.25"/>
<path opacity="0.6" d="M317.66 240.506H307.637V204.969H317.66C325.409 204.969 331.741 211.403 331.741 219.272V226.204C331.741 234.135 325.409 240.506 317.66 240.506ZM309.974 238.195H317.66C324.117 238.195 329.405 232.824 329.405 226.267V219.334C329.405 212.776 324.117 207.406 317.66 207.406H309.974V238.195Z" fill="#167BF7" fill-opacity="0.25"/>
<path opacity="0.6" d="M319.69 229.084C316.564 229.084 313.98 226.499 313.98 223.372C313.98 220.247 316.564 217.661 319.69 217.661C322.814 217.661 325.398 220.245 325.398 223.372C325.398 226.499 322.815 229.084 319.69 229.084ZM319.69 219.946C317.827 219.946 316.264 221.508 316.264 223.372C316.264 225.236 317.827 226.799 319.69 226.799C321.551 226.799 323.114 225.236 323.114 223.372C323.114 221.51 321.553 219.946 319.69 219.946ZM197.269 303.965C155.979 303.965 122.421 270.391 122.421 229.084C122.421 187.776 155.979 154.203 197.268 154.203C238.558 154.203 272.116 187.776 272.116 229.083C272.055 270.391 238.496 303.964 197.269 303.964V303.965ZM197.269 156.535C157.268 156.535 124.752 189.066 124.752 229.084C124.752 269.101 157.268 301.632 197.269 301.632C237.269 301.632 269.785 269.101 269.785 229.084C269.724 189.127 237.209 156.535 197.269 156.535Z" fill="#167BF7" fill-opacity="0.25"/>
<path opacity="0.6" d="M197.269 297.619C155.979 297.619 122.421 264.045 122.421 222.739C122.421 181.431 155.979 147.858 197.268 147.858C238.558 147.858 272.116 181.431 272.116 222.737C272.055 264.045 238.496 297.619 197.269 297.619ZM197.269 150.251C157.268 150.251 124.752 182.781 124.752 222.799C124.752 262.816 157.268 295.348 197.269 295.348C237.269 295.348 269.785 262.818 269.785 222.799C269.724 182.782 237.209 150.251 197.269 150.251Z" fill="#167BF7" fill-opacity="0.25"/>
<path opacity="0.6" d="M195.365 287.465C159.334 287.465 130.033 258.151 130.033 222.104C130.033 186.057 159.334 156.741 195.365 156.741C231.397 156.741 260.7 186.056 260.7 222.104C260.7 258.151 231.336 287.465 195.365 287.465ZM195.365 159.067C160.619 159.067 132.357 187.341 132.357 222.103C132.357 256.865 160.619 285.139 195.365 285.139C230.112 285.139 258.374 256.865 258.374 222.103C258.374 187.341 230.112 159.067 195.365 159.067Z" fill="#167BF7" fill-opacity="0.25"/>
<path opacity="0.6" d="M166.523 292.541C158.578 292.541 151.059 289.484 145.496 283.857L136.205 274.559C124.592 262.938 124.592 244.1 136.205 232.479L204.481 164.157C210.105 158.53 217.561 155.473 225.508 155.473C233.454 155.473 240.972 158.53 246.534 164.158L255.825 173.455C261.45 179.082 264.504 186.545 264.504 194.496C264.504 202.447 261.45 209.97 255.825 215.535L187.549 283.857C181.926 289.484 174.469 292.541 166.523 292.541ZM225.508 157.797C218.172 157.797 211.266 160.61 206.13 165.81L137.856 234.13C127.159 244.833 127.159 262.265 137.856 272.969L147.147 282.266C152.281 287.404 159.187 290.279 166.524 290.279C173.858 290.279 180.764 287.465 185.9 282.266L254.175 213.944C259.309 208.808 262.182 201.896 262.182 194.556C262.182 187.216 259.37 180.306 254.175 175.167L244.885 165.87C239.749 160.61 232.843 157.797 225.508 157.797ZM166.524 286.365C160.275 286.378 154.275 283.915 149.836 279.514L140.546 270.216C138.348 268.029 136.606 265.426 135.42 262.56C134.234 259.694 133.629 256.621 133.638 253.52C133.638 247.219 136.083 241.286 140.546 236.821L208.821 168.5C213.222 164.097 219.152 161.651 225.508 161.651C231.865 161.651 237.733 164.097 242.194 168.5L251.486 177.798C255.887 182.201 258.332 188.133 258.332 194.495C258.332 200.796 255.887 206.728 251.486 211.193L183.149 279.453C178.748 283.917 172.818 286.365 166.523 286.365H166.524ZM225.508 163.975C219.823 163.975 214.505 166.176 210.47 170.152L142.195 238.473C133.883 246.791 133.883 260.247 142.195 268.565L151.486 277.863C155.459 281.837 160.838 284.041 166.524 284.041C172.207 284.041 177.525 281.837 181.559 277.863L249.835 209.541C253.808 205.567 256.009 200.183 256.009 194.496C256.009 188.807 253.808 183.486 249.835 179.449L240.544 170.152C236.571 166.176 231.192 163.975 225.508 163.975Z" fill="#167BF7" fill-opacity="0.25"/>
<path opacity="0.6" d="M140.412 288.735C137.783 288.735 135.089 287.751 133.055 285.721C131.084 283.756 130.033 281.201 130.033 278.385C130.033 275.568 131.084 273.013 133.055 271.048L135.682 268.427L150.33 283.036L147.703 285.655C146.753 286.628 145.619 287.401 144.367 287.93C143.115 288.459 141.77 288.732 140.411 288.735H140.412ZM135.682 271.965L134.827 272.817C134.092 273.545 133.51 274.413 133.116 275.369C132.721 276.325 132.522 277.351 132.529 278.385C132.522 279.419 132.722 280.445 133.116 281.401C133.511 282.357 134.093 283.225 134.827 283.953C136.31 285.431 138.317 286.261 140.411 286.261C142.504 286.261 144.512 285.431 145.994 283.953L146.849 283.1L135.682 271.965Z" fill="#167BF7" fill-opacity="0.25"/>
<path opacity="0.6" d="M139.285 280.224C139.402 280.105 139.541 280.011 139.695 279.947C139.849 279.883 140.014 279.85 140.181 279.85C140.347 279.85 140.512 279.883 140.666 279.947C140.82 280.011 140.959 280.105 141.077 280.224C141.195 280.341 141.289 280.481 141.354 280.634C141.418 280.788 141.451 280.953 141.451 281.12C141.451 281.286 141.418 281.451 141.354 281.605C141.289 281.759 141.195 281.898 141.077 282.016C140.96 282.134 140.82 282.228 140.667 282.293C140.513 282.357 140.348 282.39 140.181 282.39C140.015 282.39 139.85 282.357 139.696 282.293C139.542 282.228 139.403 282.134 139.286 282.016C139.167 281.898 139.073 281.759 139.009 281.605C138.945 281.451 138.912 281.286 138.912 281.12C138.912 280.953 138.945 280.788 139.009 280.634C139.073 280.481 139.167 280.341 139.286 280.224" fill="#167BF7" fill-opacity="0.25"/>
<path opacity="0.6" d="M140.152 283.658C139.522 283.658 138.834 283.429 138.375 282.914C137.401 281.942 137.401 280.341 138.375 279.31C139.35 278.339 140.955 278.339 141.988 279.31C142.962 280.283 142.962 281.884 141.988 282.914C141.498 283.394 140.838 283.661 140.152 283.658ZM140.152 280.741C140.038 280.741 139.981 280.797 139.923 280.855C139.809 280.969 139.809 281.198 139.923 281.37C140.038 281.484 140.268 281.484 140.44 281.37C140.554 281.255 140.554 281.027 140.44 280.855C140.324 280.797 140.268 280.741 140.152 280.741ZM225.508 292.541C217.563 292.541 210.044 289.484 204.481 283.857L136.205 215.535C124.592 203.915 124.592 185.076 136.205 173.455L145.496 164.158C151.121 158.532 158.576 155.473 166.523 155.473C174.469 155.473 181.988 158.53 187.549 164.158L255.825 232.479C261.45 238.106 264.504 245.569 264.504 253.52C264.504 261.471 261.45 268.994 255.825 274.559L246.534 283.857C240.972 289.484 233.454 292.541 225.508 292.541ZM166.524 157.797C159.187 157.797 152.281 160.61 147.147 165.81L137.856 175.106C127.159 185.809 127.159 203.242 137.856 213.946L206.132 282.204C211.266 287.343 218.172 290.218 225.509 290.218C232.843 290.218 239.749 287.404 244.885 282.204L254.175 272.908C256.721 270.364 258.74 267.341 260.114 264.014C261.489 260.686 262.191 257.12 262.182 253.52C262.182 246.18 259.37 239.268 254.175 234.13L185.9 165.808C180.764 160.61 173.858 157.797 166.523 157.797H166.524ZM225.508 286.365C219.259 286.377 213.259 283.914 208.821 279.514L140.546 211.132C131.376 201.958 131.376 186.972 140.546 177.798L149.836 168.5C154.237 164.097 160.167 161.651 166.523 161.651C172.88 161.651 178.748 164.097 183.21 168.5L251.486 236.821C255.887 241.225 258.332 247.157 258.332 253.518C258.332 259.819 255.887 265.752 251.486 270.216L242.194 279.453C240.008 281.652 237.407 283.395 234.543 284.581C231.679 285.768 228.608 286.374 225.508 286.365ZM166.524 163.975C160.838 163.975 155.52 166.176 151.486 170.152L142.195 179.449C133.883 187.767 133.883 201.223 142.195 209.541L210.471 277.863C214.444 281.837 219.823 284.041 225.509 284.041C231.192 284.041 236.51 281.837 240.544 277.863L249.835 268.565C253.808 264.591 256.009 259.207 256.009 253.52C256.009 247.831 253.808 242.51 249.835 238.473L181.559 170.151C177.525 166.177 172.207 163.973 166.523 163.973L166.524 163.975Z" fill="#167BF7" fill-opacity="0.25"/>
<path opacity="0.6" d="M135.705 175.779L133.082 173.155C129.015 169.086 129.015 162.525 133.082 158.524C137.148 154.455 143.707 154.455 147.707 158.524L150.33 161.147L135.705 175.779ZM140.428 157.932C138.329 157.932 136.361 158.719 134.853 160.229C134.12 160.961 133.539 161.83 133.142 162.787C132.745 163.744 132.541 164.77 132.541 165.806C132.541 166.842 132.745 167.868 133.142 168.825C133.539 169.782 134.12 170.651 134.853 171.383L135.705 172.235L146.854 161.083L146.002 160.23C145.272 159.496 144.404 158.914 143.446 158.519C142.489 158.125 141.463 157.925 140.428 157.932Z" fill="#167BF7" fill-opacity="0.25"/>
<path opacity="0.6" d="M141.077 163.461C141.195 163.578 141.289 163.717 141.354 163.871C141.418 164.025 141.451 164.19 141.451 164.356C141.451 164.523 141.418 164.688 141.354 164.842C141.289 164.996 141.195 165.135 141.077 165.252C140.96 165.371 140.82 165.465 140.667 165.529C140.513 165.593 140.348 165.627 140.181 165.627C140.015 165.627 139.85 165.593 139.696 165.529C139.542 165.465 139.403 165.371 139.286 165.252C139.167 165.135 139.073 164.996 139.009 164.842C138.945 164.688 138.912 164.523 138.912 164.356C138.912 164.19 138.945 164.025 139.009 163.871C139.073 163.717 139.167 163.578 139.286 163.461C139.403 163.342 139.542 163.248 139.696 163.184C139.85 163.119 140.015 163.086 140.181 163.086C140.348 163.086 140.513 163.119 140.667 163.184C140.82 163.248 140.96 163.342 141.077 163.461Z" fill="#167BF7" fill-opacity="0.25"/>
<path opacity="0.6" d="M140.152 166.894C139.522 166.894 138.834 166.666 138.375 166.151C137.401 165.179 137.401 163.577 138.375 162.548C139.35 161.574 140.955 161.574 141.988 162.548C142.962 163.52 142.962 165.121 141.988 166.151C141.498 166.631 140.838 166.898 140.152 166.894ZM140.152 164.035C140.038 164.035 139.981 164.091 139.923 164.149C139.809 164.263 139.809 164.493 139.923 164.663C140.038 164.779 140.268 164.779 140.44 164.663C140.554 164.549 140.554 164.321 140.44 164.149C140.324 164.035 140.268 164.035 140.152 164.035ZM254.192 288.735C251.436 288.743 248.789 287.655 246.834 285.712L244.207 283.083L258.855 268.427L261.484 271.057C263.454 273.028 264.504 275.591 264.504 278.417C264.504 281.177 263.454 283.806 261.484 285.777C259.52 287.66 256.911 288.718 254.192 288.735ZM247.754 283.016L248.608 283.872C249.341 284.606 250.211 285.189 251.169 285.586C252.127 285.984 253.154 286.188 254.192 286.188C255.229 286.188 256.256 285.984 257.214 285.586C258.172 285.189 259.043 284.606 259.775 283.872C260.511 283.14 261.093 282.269 261.487 281.31C261.882 280.351 262.082 279.323 262.075 278.285C262.082 277.248 261.882 276.22 261.487 275.261C261.093 274.301 260.511 273.431 259.775 272.699L258.922 271.845L247.754 283.016ZM292.47 204.968L307.976 198.487L308.876 200.637L293.369 207.117L292.47 204.968ZM306.669 170.702C291.358 170.702 275.803 157.646 269.642 138.185C266.165 127.162 266.165 115.706 269.703 105.914C273.242 96.0609 279.951 89.1015 288.49 86.3301L318.258 76.7842L326.554 103.142C329.592 107.595 331.956 112.472 333.568 117.616C335.201 122.757 336.065 128.111 336.131 133.505L344.428 159.863L314.659 169.409C312.098 170.333 309.352 170.702 306.669 170.702ZM316.733 79.7406L289.223 88.6084C281.354 91.1332 275.193 97.6008 271.899 106.777C268.544 116.014 268.544 126.976 271.899 137.508C278.732 159.186 297.641 172.55 314.048 167.254L341.621 158.385L333.874 133.936V133.751C333.823 128.542 332.98 123.371 331.374 118.416C329.804 113.453 327.523 108.744 324.602 104.437L324.48 104.314L316.733 79.7406Z" fill="#167BF7" fill-opacity="0.25"/>
<path opacity="0.6" d="M310.627 168.164C304.423 168.164 298.035 166.079 292.077 161.969C283.601 156.083 276.967 146.822 273.467 135.783C269.966 124.805 269.966 113.398 273.527 103.646C277.09 93.8338 283.846 86.9033 292.445 84.1437L315.479 76.7855L330.712 100.764C333.72 105.119 336.116 110.024 337.836 115.238C339.494 120.511 340.416 125.848 340.416 131.244L341.89 159.517L318.857 166.876C316.154 167.735 313.39 168.164 310.627 168.164ZM314.495 79.6055L293.182 86.4127C285.259 88.9271 279.056 95.3671 275.739 104.505C272.36 113.705 272.36 124.621 275.739 135.108C279.117 145.595 285.381 154.488 293.49 160.067C301.474 165.589 310.258 167.245 318.181 164.73L339.494 157.923L338.144 131.367C338.082 126.215 337.284 121.064 335.625 116.034C334.029 111.005 331.694 106.345 328.808 102.113L314.495 79.6055Z" fill="#167BF7" fill-opacity="0.25"/>
<path opacity="0.6" d="M334.983 161.818C319.517 161.818 303.803 148.856 297.579 129.533C294.066 118.589 294.066 107.216 297.639 97.4932C301.215 87.7112 307.993 80.8017 316.619 78.0499C325.309 75.2982 334.799 77.0715 343.426 83.0026C351.931 88.872 358.586 98.1057 362.098 109.111C365.611 120.057 365.611 131.43 362.036 141.151C358.462 150.935 351.684 157.844 343.056 160.595C340.407 161.451 337.694 161.818 334.984 161.818H334.983ZM324.816 79.212C322.29 79.212 319.763 79.5793 317.297 80.3728C309.348 82.8806 303.125 89.3009 299.796 98.4113C296.407 107.582 296.407 118.466 299.796 128.922C305.713 147.266 320.441 159.618 334.923 159.618C337.449 159.618 339.914 159.25 342.379 158.455C350.329 155.948 356.551 149.529 359.881 140.417C363.269 131.246 363.269 120.362 359.881 109.906C356.491 99.4501 350.205 90.585 342.07 85.0198C336.586 81.1676 330.608 79.212 324.816 79.212Z" fill="#167BF7" fill-opacity="0.25"/>
<path opacity="0.6" d="M334.036 155.473C328.728 155.473 323.236 153.627 318.172 150.122C310.91 145.018 305.236 137.022 302.245 127.553C296.02 107.873 303.344 87.8857 318.537 82.9658C325.983 80.5669 334.098 82.1054 341.481 87.2705C348.744 92.3753 354.418 100.37 357.408 109.841C360.397 119.311 360.397 129.152 357.408 137.516C354.358 146.002 348.559 151.967 341.176 154.366C338.735 155.103 336.417 155.473 334.036 155.473ZM325.494 84.1961C323.34 84.1868 321.198 84.5189 319.148 85.1798C305.174 89.6695 298.523 108.365 304.381 126.814C307.249 135.793 312.558 143.419 319.392 148.216C326.165 152.951 333.549 154.366 340.261 152.214C346.974 150.06 352.222 144.587 355.029 136.776C357.896 128.906 357.896 119.557 355.029 110.579C352.16 101.6 346.852 93.9742 340.017 89.1776C335.379 85.9183 330.376 84.1961 325.494 84.1961Z" fill="#167BF7" fill-opacity="0.25"/>
<path opacity="0.6" d="M334.036 155.473C328.728 155.473 323.236 153.627 318.172 150.122C310.91 145.018 305.236 137.022 302.245 127.553C296.02 107.873 303.344 87.8857 318.537 82.9658C325.983 80.5669 334.098 82.1054 341.481 87.2705C348.744 92.3753 354.418 100.37 357.408 109.841C360.397 119.311 360.397 129.152 357.408 137.516C354.358 146.002 348.559 151.967 341.176 154.366C338.735 155.103 336.417 155.473 334.036 155.473ZM325.494 84.1961C323.34 84.1868 321.198 84.5189 319.148 85.1798C305.174 89.6695 298.523 108.365 304.381 126.814C307.249 135.793 312.558 143.419 319.392 148.216C326.165 152.951 333.549 154.366 340.261 152.214C346.974 150.06 352.222 144.587 355.029 136.776C357.896 128.906 357.896 119.557 355.029 110.579C352.16 101.6 346.852 93.9742 340.017 89.1776C335.379 85.9183 330.376 84.1961 325.494 84.1961Z" fill="#167BF7" fill-opacity="0.25"/>
<path opacity="0.6" d="M336.006 154.203L335.266 151.985C348.986 147.61 354.584 130.724 348.616 111.805C345.726 102.624 340.742 95.0431 334.59 90.3607C328.315 85.6153 321.486 84.2591 314.718 86.4167L313.98 84.1974C321.363 81.8562 329.175 83.3973 335.944 88.5126C342.465 93.4417 347.756 101.453 350.769 111.127C357.23 131.279 351.016 149.396 336.004 154.203H336.006ZM273.994 144.05L273.238 141.873L290.602 136.305C291.357 136.064 291.923 135.64 292.237 134.974C292.551 134.369 292.614 133.642 292.425 132.917C292.18 132.236 291.686 131.674 291.042 131.343C290.413 131.042 289.658 130.981 288.903 131.162L271.476 136.002L270.847 133.825L288.21 129.044C289.469 128.682 290.916 128.742 292.111 129.347C292.714 129.633 293.253 130.038 293.696 130.536C294.139 131.035 294.478 131.618 294.691 132.251C295.131 133.523 295.006 134.853 294.376 136.064C293.724 137.246 292.643 138.134 291.357 138.544L273.994 144.05Z" fill="#167BF7" fill-opacity="0.25"/>
<path opacity="0.6" d="M299.728 122.802L356.601 104.702L357.306 106.921L300.437 125.023L299.728 122.802ZM302.784 132.368L359.657 114.267L360.365 116.488L303.492 134.588L302.784 132.368ZM222.64 371.23C220.571 371.23 218.834 369.493 218.834 367.422C218.834 365.351 220.571 363.615 222.64 363.615C224.712 363.615 226.446 365.351 226.446 367.422C226.446 369.493 224.71 371.23 222.64 371.23ZM222.64 366.154C221.973 366.154 221.373 366.688 221.373 367.422C221.373 368.157 221.906 368.692 222.64 368.692C223.374 368.692 223.909 368.157 223.909 367.422C223.909 366.688 223.309 366.153 222.64 366.153V366.154ZM39.9604 435.957C37.8916 435.957 36.1558 434.22 36.1558 432.15C36.1558 430.078 37.8916 428.343 39.9617 428.343C42.0305 428.343 43.7663 430.079 43.7663 432.15C43.7667 432.65 43.6685 433.145 43.4774 433.607C43.2864 434.069 43.0061 434.489 42.6528 434.842C42.2994 435.196 41.8798 435.476 41.4181 435.668C40.9563 435.859 40.4614 435.957 39.9617 435.957H39.9604ZM39.9604 430.881C39.624 430.881 39.3014 431.015 39.0637 431.253C38.8259 431.491 38.6925 431.814 38.6926 432.15C38.6928 432.487 38.8266 432.81 39.0646 433.047C39.3026 433.285 39.6253 433.419 39.9617 433.419C40.629 433.419 41.2295 432.885 41.2295 432.15C41.2295 431.416 40.6959 430.881 39.9617 430.881H39.9604ZM100.854 565.412C98.784 565.412 97.0482 563.674 97.0482 561.605C97.0482 559.532 98.784 557.797 100.854 557.797C102.924 557.797 104.66 559.534 104.66 561.605C104.66 562.105 104.562 562.6 104.371 563.062C104.18 563.524 103.9 563.944 103.546 564.298C103.193 564.652 102.773 564.932 102.311 565.123C101.849 565.314 101.354 565.413 100.854 565.412ZM100.854 560.335C100.186 560.335 99.5864 560.936 99.5864 561.605C99.5864 562.272 100.187 562.873 100.854 562.873C101.523 562.873 102.123 562.339 102.123 561.605C102.123 560.936 101.521 560.335 100.854 560.335ZM164.286 592.064C162.215 592.064 160.479 590.328 160.479 588.257C160.479 586.186 162.215 584.449 164.285 584.449C166.355 584.449 168.091 586.186 168.091 588.257C168.091 590.328 166.355 592.064 164.285 592.064H164.286ZM164.286 586.988C163.617 586.988 163.016 587.589 163.016 588.257C163.016 588.926 163.617 589.526 164.285 589.526C164.953 589.526 165.554 588.991 165.554 588.257C165.554 587.588 164.952 586.987 164.285 586.987L164.286 586.988Z" fill="#167BF7" fill-opacity="0.25"/>
<path opacity="0.6" d="M131.3 366.153H220.103V368.691H131.3V366.153Z" fill="#167BF7" fill-opacity="0.25"/>
<path opacity="0.6" d="M133.838 380.114H124.958V357.269H133.838V380.114ZM127.178 377.823H131.618V359.559H127.178V377.823ZM101.554 283.658H70.4079V106.021C70.4079 88.3251 74.2781 72.9556 82.0185 60.4035C88.162 50.2989 96.7624 41.9715 107.576 35.6653C125.883 24.8878 143.882 23.6641 144.62 23.6024L146.524 23.4791L126.865 66.7714L126.313 66.8934C115.131 70.0163 107.576 77.0583 103.829 87.9578C101.002 96.1632 101.554 103.573 101.554 103.633V283.658ZM72.6813 281.331H99.2193V103.756C99.1576 103.022 98.7276 95.6727 101.615 87.2836C104.318 79.3235 110.646 69.0365 125.144 64.8119L142.714 26.1128C137.554 26.7253 122.994 29.2345 108.556 37.6852C98.1128 43.8091 89.8191 51.8912 83.8605 61.6273C76.4269 73.8121 72.6183 88.754 72.6183 106.021V281.331H72.6799H72.6813ZM207.216 38.7095H205.082C202.192 38.7095 199.806 36.2568 199.806 33.2886V9.8633C199.806 6.89382 202.192 4.44242 205.082 4.44242H207.216C210.105 4.44242 212.492 6.89513 212.492 9.8633V33.2886C212.492 36.3211 210.168 38.7095 207.216 38.7095ZM205.082 6.89382C203.511 6.89382 202.192 8.25002 202.192 9.8633V33.2886C202.192 34.9019 203.511 36.2568 205.082 36.2568H207.216C208.787 36.2568 210.105 34.9019 210.105 33.2886V9.8633C210.105 8.25002 208.787 6.89382 207.216 6.89382H205.082Z" fill="#167BF7" fill-opacity="0.25"/>
<path opacity="0.6" d="M240.434 105.975H150.359C136.173 105.975 124.201 95.4628 122.604 81.8457H122.421V50.131H268.31V78.8015C268.372 93.7932 255.785 105.977 240.434 105.977V105.975ZM124.754 79.6357L124.816 80.6522C125.798 93.6108 136.973 103.765 150.359 103.765H240.372C254.495 103.765 265.977 92.597 265.977 78.8592V77.7837L265.915 76.6504H265.977V52.4014H124.754V79.6357Z" fill="#167BF7" fill-opacity="0.25"/>
<path opacity="0.6" d="M246.021 81.8614H144.77C132.429 81.8614 122.421 72.086 122.421 60.031V49.1171C122.421 37.0634 132.429 27.2867 144.771 27.2867H245.96C258.302 27.2867 268.31 37.0621 268.31 49.1171V60.031C268.372 72.0847 258.302 81.8614 246.023 81.8614H246.021ZM144.77 29.5663C133.718 29.5663 124.754 38.3213 124.754 49.1171V60.031C124.754 70.8256 133.719 79.5819 144.771 79.5819H245.96C257.012 79.5819 265.977 70.8256 265.977 60.031V49.1171C265.977 38.3226 257.012 29.5663 245.96 29.5663H144.771H144.77Z" fill="#167BF7" fill-opacity="0.25"/>
<path opacity="0.6" d="M246.021 76.7842H144.77C132.429 76.7842 122.421 67.0088 122.421 54.9551V44.0399C122.421 31.9862 132.429 22.2108 144.771 22.2108H245.96C258.302 22.2108 268.31 31.9862 268.31 44.0399V54.9551C268.372 67.0088 258.302 76.7842 246.023 76.7842H246.021ZM144.77 24.4904C133.718 24.4904 124.754 33.2454 124.754 44.0399V54.9551C124.754 65.7496 133.719 74.506 144.771 74.506H245.96C257.012 74.506 265.977 65.7496 265.977 54.9551V44.0399C265.977 33.2454 257.012 24.4891 245.96 24.4891H144.771L144.77 24.4904Z" fill="#167BF7" fill-opacity="0.25"/>
<path opacity="0.6" d="M197.902 70.4386C180.839 70.4386 166.861 68.3296 157.542 64.3515C146.346 59.5903 143.986 53.3222 143.986 48.8627C143.986 44.4635 146.346 38.135 157.542 33.3739C166.861 29.3958 180.839 27.288 197.902 27.288C214.967 27.288 228.945 29.3958 238.264 33.3739C249.459 38.135 251.82 44.4032 251.82 48.8627C251.82 53.2618 249.459 59.5903 238.264 64.3515C228.945 68.3296 215.027 70.4373 197.902 70.4373V70.4386ZM197.902 29.6371C159.842 29.6371 146.287 39.5817 146.287 48.8627C146.287 58.1436 159.842 68.0882 197.902 68.0882C235.964 68.0882 249.519 58.1436 249.519 48.8627C249.579 39.5817 235.964 29.6371 197.904 29.6371H197.902Z" fill="#167BF7" fill-opacity="0.25"/>
<path opacity="0.6" d="M258.161 47.593H255.854V44.6577C248.508 43.2503 197.872 34.3222 139.951 44.6577V47.5327H137.643V42.7611L138.616 42.5775C201.818 31.0799 256.705 42.4555 257.252 42.5775L258.161 42.7611V47.593Z" fill="#167BF7" fill-opacity="0.25"/>
<path opacity="0.6" d="M174.433 28.5563H176.97V71.7083H174.433V28.5563ZM166.822 28.5563H169.358V71.7083H166.822V28.5563ZM225.178 28.5563H227.715V71.7083H225.178V28.5563ZM217.567 28.5563H220.103V71.7083H217.567V28.5563ZM195.094 97.0905C192.013 97.0905 189.173 95.5481 187.603 92.9367L180.776 81.7788L182.769 80.5918L189.597 91.7497C190.804 93.7669 192.979 94.8949 195.275 94.8359C197.631 94.7769 199.685 93.5295 200.834 91.4519L206.693 80.5918L208.686 81.6595L202.825 92.5209C201.316 95.3107 198.538 96.9725 195.335 97.0905H195.094ZM147.793 80.5918H150.33V95.8222H147.793V80.5918ZM154.136 80.5918H156.673V95.8222H154.136V80.5918ZM101.308 31.0943L99.5864 29.4942C99.7699 29.3013 116.626 9.71116 146.524 9.51835V11.9514C117.672 12.1442 101.493 30.9028 101.308 31.0943ZM102.123 20.9411C102.123 21.652 101.565 22.2108 100.854 22.2108C100.144 22.2108 99.5864 21.652 99.5864 20.9411C99.5864 20.2303 100.144 19.6715 100.854 19.6715C101.565 19.6715 102.123 20.2303 102.123 20.9411ZM109.734 17.1335C109.734 17.8444 109.177 18.4032 108.466 18.4032C107.755 18.4032 107.197 17.8444 107.197 17.1335C107.197 16.4227 107.755 15.8639 108.466 15.8639C109.177 15.8639 109.735 16.4227 109.735 17.1335H109.734ZM113.452 14.1182C113.704 14.7713 113.402 15.5255 112.749 15.776C112.096 16.0279 111.342 15.7262 111.092 15.073C110.84 14.4198 111.142 13.6657 111.795 13.4138C112.448 13.1633 113.201 13.465 113.452 14.1182ZM275.834 69.9612C276.086 70.6144 275.784 71.3686 275.132 71.6191C274.477 71.8709 273.725 71.5692 273.473 70.9161C273.223 70.2629 273.523 69.5087 274.177 69.2569C274.83 69.0064 275.583 69.308 275.834 69.9612ZM275.834 78.8592C276.086 79.5071 275.784 80.2547 275.132 80.5039C274.477 80.7531 273.725 80.4541 273.473 79.8062C273.223 79.1582 273.523 78.4106 274.177 78.1614C274.83 77.8624 275.583 78.2112 275.834 78.8592Z" fill="#167BF7" fill-opacity="0.25"/>
<path opacity="0.6" d="M195.912 90.282C196.163 90.9299 195.861 91.6775 195.208 91.9267C194.555 92.1759 193.803 91.8769 193.551 91.229C193.299 90.581 193.601 89.8334 194.254 89.5842C194.408 89.5144 194.574 89.4771 194.743 89.4748C194.912 89.4724 195.08 89.505 195.235 89.5705C195.391 89.6361 195.532 89.7331 195.648 89.8555C195.765 89.9779 195.854 90.1231 195.912 90.282ZM264.416 141.049C264.668 141.697 264.367 142.445 263.714 142.694C263.061 142.943 262.307 142.644 262.055 141.996C261.805 141.348 262.106 140.599 262.759 140.35C262.913 140.28 263.08 140.243 263.249 140.241C263.418 140.239 263.585 140.271 263.741 140.337C263.896 140.403 264.037 140.5 264.153 140.622C264.269 140.745 264.359 140.89 264.416 141.049ZM117.259 94.0896C117.508 94.7375 117.207 95.4851 116.555 95.7343C115.902 95.9835 115.148 95.6845 114.897 95.0366C114.646 94.3886 114.948 93.641 115.601 93.3918C116.254 93.0928 117.007 93.4416 117.258 94.0896H117.259ZM95.6926 270.489C95.943 271.142 95.6414 271.895 94.9886 272.147C94.3357 272.399 93.5818 272.097 93.3314 271.444C93.0797 270.791 93.3812 270.037 94.0341 269.785C94.7368 269.534 95.4409 269.836 95.6913 270.489H95.6926ZM95.6926 264.142C95.943 264.797 95.6414 265.55 94.9886 265.801C94.3357 266.052 93.5818 265.752 93.3314 265.097C93.0797 264.444 93.3812 263.691 94.0341 263.439C94.7368 263.187 95.4409 263.489 95.6913 264.142H95.6926ZM63.976 403.751C64.2277 404.404 63.9262 405.157 63.2733 405.409C62.6204 405.661 61.8665 405.359 61.6161 404.706C61.3644 404.052 61.6659 403.299 62.3188 403.047C62.9717 402.796 63.7256 403.097 63.976 403.751ZM63.976 397.404C64.2277 398.058 63.9262 398.812 63.2733 399.064C62.6204 399.314 61.8665 399.012 61.6161 398.359C61.3644 397.706 61.6659 396.953 62.3188 396.701C62.9717 396.45 63.7256 396.751 63.976 397.404ZM140.093 5.23332C140.344 5.8865 140.042 6.64068 139.389 6.89251C138.737 7.14302 137.983 6.84135 137.732 6.18817C137.481 5.53499 137.782 4.78213 138.435 4.5303C139.088 4.27847 139.842 4.58014 140.093 5.23332ZM131.212 6.50296C131.464 7.15614 131.163 7.91031 130.51 8.16083C129.857 8.41266 129.103 8.11099 128.851 7.45781C128.601 6.80463 128.902 6.05045 129.555 5.79993C130.208 5.54811 130.962 5.84978 131.212 6.50296ZM126.139 7.7726C126.389 8.42578 126.088 9.17864 125.435 9.43047C124.782 9.6823 124.028 9.38063 123.778 8.72745C123.526 8.07426 123.827 7.32009 124.48 7.06826C125.133 6.81774 125.887 7.11941 126.139 7.7726ZM121.064 11.5802C121.315 12.2334 121.014 12.9862 120.361 13.2381C119.708 13.4899 118.954 13.1882 118.703 12.535C118.452 11.8806 118.754 11.1277 119.407 10.8759C120.06 10.6253 120.813 10.9257 121.064 11.5802ZM74.5508 342.039L72.8281 322.456C71.4148 318.978 70.5534 315.256 70.185 311.474C69.877 307.631 70.0618 303.847 70.8615 300.188L69.1388 280.603L91.6454 278.651C98.1626 278.102 104.496 280.787 109.6 286.277C114.582 291.647 117.718 299.15 118.455 307.264C119.193 315.439 117.348 323.309 113.413 329.471C109.355 335.755 103.575 339.477 97.0561 340.087L74.5508 342.039ZM71.66 282.678L73.1978 300.31L73.1362 300.494C72.3857 304.02 72.1577 307.638 72.4597 311.23C72.7678 314.89 73.6278 318.428 74.9808 321.723L75.0424 321.907L76.579 339.537L96.7493 337.768C102.53 337.28 107.694 333.863 111.323 328.251C115.012 322.517 116.733 315.135 116.057 307.508C115.38 299.882 112.429 292.867 107.817 287.864C103.268 282.922 97.5477 280.481 91.7686 280.97L71.66 282.678Z" fill="#167BF7" fill-opacity="0.25"/>
<path opacity="0.6" d="M72.3692 342.039L65.5899 322.9C64.1503 319.321 63.2644 315.544 62.9625 311.699C62.6013 307.831 62.828 303.93 63.6351 300.13L67.0556 280.128L84.221 278.651C90.6962 278.098 96.9879 280.806 102.058 286.344C107.006 291.761 110.121 299.329 110.855 307.515C112.32 324.623 102.792 339.455 89.5963 340.624L72.3692 342.04V342.039ZM69.0104 282.282L65.8953 300.56C65.1507 304.14 64.9242 307.809 65.2228 311.453C65.5196 315.088 66.3638 318.656 67.7269 322.038L73.9582 339.578L89.3524 338.223C101.264 337.178 109.877 323.455 108.533 307.7C107.862 300.007 104.929 292.93 100.348 287.882C95.8276 282.898 90.1456 280.436 84.4045 280.928L69.0104 282.283V282.282Z" fill="#167BF7" fill-opacity="0.25"/>
<path opacity="0.6" d="M75.1906 342.039C69.3381 342.039 63.6692 339.328 59.036 334.274C54.0986 328.851 50.9902 321.271 50.2586 313.075C48.7955 295.942 58.3044 281.091 71.4712 279.92C82.9926 278.935 93.5989 288.486 97.0744 302.845L112.07 302.044C113.245 301.981 114.42 302.162 115.522 302.575C116.623 302.989 117.627 303.626 118.471 304.447C119.319 305.272 119.993 306.259 120.453 307.349C120.914 308.44 121.151 309.611 121.152 310.795C121.152 313.198 120.238 315.417 118.531 317.019C117.706 317.834 116.725 318.474 115.645 318.898C114.566 319.322 113.411 319.521 112.252 319.484L97.6224 319.114C95.3674 331.994 87.1381 341.115 76.7756 342.039H75.1893H75.1906ZM73.1781 282.201C72.6904 282.201 72.2027 282.201 71.715 282.262C59.8292 283.309 51.234 297.052 52.5739 312.828C53.2451 320.532 56.1714 327.619 60.743 332.673C65.2529 337.663 70.9232 340.129 76.6537 339.636C86.1627 338.773 93.7824 329.96 95.5497 317.697L95.6716 316.649L112.374 317.081C114.081 317.142 115.727 316.465 116.946 315.294C117.546 314.696 118.022 313.985 118.346 313.202C118.671 312.42 118.837 311.581 118.836 310.733C118.836 308.946 118.165 307.344 116.885 306.111C115.605 304.878 113.959 304.262 112.192 304.385L95.2455 305.31L95.062 304.323C92.2577 291.26 83.2364 282.201 73.1781 282.201Z" fill="#167BF7" fill-opacity="0.25"/>
<path opacity="0.6" d="M72.3784 334.424C68.0664 334.424 63.875 332.397 60.4742 328.712C56.8295 324.72 54.5221 319.192 54.037 313.173C53.489 307.153 54.8249 301.319 57.7407 296.712C60.7167 292.043 64.9684 289.218 69.7065 288.789C79.4252 287.928 88.2315 297.449 89.3249 310.039C90.4183 322.631 83.3728 333.564 73.654 334.424C73.2293 334.363 72.8045 334.424 72.3784 334.424ZM70.9218 291C70.5574 291 70.2532 291 69.8887 291.06C65.8193 291.429 62.2349 293.825 59.6233 297.878C57.0117 302.056 55.7977 307.338 56.2828 312.866C56.7679 318.393 58.8341 323.43 62.1143 327.054C65.3329 330.616 69.342 332.335 73.3499 331.967C81.793 331.23 87.9286 321.403 86.9558 310.163C86.1063 299.352 78.9991 291 70.9218 291ZM111.637 315.387C110.887 315.39 110.143 315.244 109.449 314.959C108.755 314.673 108.125 314.252 107.594 313.721C107.063 313.19 106.643 312.559 106.357 311.865C106.072 311.171 105.926 310.427 105.929 309.676C105.926 308.925 106.071 308.181 106.357 307.487C106.643 306.792 107.063 306.161 107.594 305.63C108.124 305.099 108.755 304.678 109.449 304.393C110.143 304.107 110.887 303.961 111.637 303.964C112.388 303.961 113.132 304.106 113.826 304.392C114.52 304.678 115.151 305.099 115.682 305.63C116.212 306.161 116.633 306.792 116.918 307.486C117.204 308.181 117.349 308.925 117.346 309.676C117.349 310.427 117.203 311.171 116.917 311.865C116.632 312.559 116.211 313.19 115.681 313.721C115.15 314.252 114.52 314.673 113.826 314.959C113.132 315.244 112.388 315.39 111.637 315.387ZM111.637 306.376C111.203 306.373 110.773 306.456 110.371 306.621C109.97 306.786 109.605 307.029 109.298 307.336C108.991 307.643 108.748 308.008 108.584 308.41C108.419 308.811 108.336 309.242 108.339 309.676C108.339 311.516 109.798 312.975 111.637 312.975C113.477 312.975 114.936 311.516 114.936 309.676C114.939 309.242 114.856 308.811 114.691 308.41C114.527 308.008 114.284 307.643 113.977 307.336C113.67 307.029 113.305 306.786 112.903 306.621C112.502 306.456 112.071 306.373 111.637 306.376Z" fill="#167BF7" fill-opacity="0.25"/>
<path opacity="0.6" d="M107.197 309.041H116.077V311.579H107.197V309.041ZM58.9901 352.193C54.1668 352.193 50.2717 347.975 50.2717 342.779V342.657L52.4978 319.183L30.9182 321.627C26.0962 321.627 22.1998 317.409 22.1998 312.214C22.1998 307.017 26.0962 302.799 30.9182 302.799H31.0427L52.4978 305.245L50.2717 281.65C50.2717 276.453 54.1668 272.235 58.9901 272.235C63.8134 272.235 67.7085 276.453 67.7085 281.65V281.772L65.4824 305.245L87.062 302.799C91.884 302.799 95.7804 307.017 95.7804 312.214C95.7804 317.409 91.884 321.627 87.062 321.627H86.9375L65.4824 319.183L67.7085 342.779C67.7085 347.975 63.7518 352.192 58.9901 352.192V352.193ZM52.5595 342.84C52.5595 346.691 55.466 349.87 58.9285 349.87C62.4526 349.87 65.2975 346.691 65.2975 342.84L63.0097 318.939L61.4627 318.755L64.9881 314.904L65.173 316.858L87.062 319.305C90.5861 319.244 93.3681 316.127 93.3681 312.214C93.3681 308.302 90.5232 305.184 87.062 305.122L65.173 307.568L64.9881 309.464L61.464 305.611L63.0097 305.428L65.2975 281.526C65.2975 277.675 62.3909 274.496 58.9285 274.496C55.4044 274.496 52.5595 277.675 52.5595 281.526L54.8472 305.429L56.3942 305.613L52.8689 309.464L52.684 307.568L30.7949 305.122C27.2709 305.184 24.4889 308.302 24.4889 312.214C24.4889 316.127 27.3338 319.244 30.7949 319.305L52.684 316.86L52.8689 314.965L56.3929 318.815L54.8472 318.999L52.5595 342.84Z" fill="#167BF7" fill-opacity="0.25"/>
<path opacity="0.6" d="M58.9901 330.617C54.9233 330.617 51.0373 328.739 48.1832 325.373C42.2954 318.448 42.2954 307.25 48.1832 300.323C51.0373 296.957 54.9219 295.081 58.9901 295.081C63.0582 295.081 66.9428 296.956 69.797 300.323C75.6861 307.248 75.6861 318.448 69.797 325.375C66.9428 328.739 63.0582 330.617 58.9901 330.617ZM58.9901 297.54C55.529 297.54 52.3117 299.094 49.8836 302.006C44.7837 308.026 44.7837 317.736 49.8836 323.755C52.3117 326.604 55.5303 328.222 58.9901 328.222C62.4512 328.222 65.6685 326.668 68.0966 323.755C73.1965 317.735 73.1965 308.026 68.0966 302.006C65.6685 299.094 62.3896 297.54 58.9901 297.54ZM47.5723 300.156L69.1388 323.002L47.5723 300.156Z" fill="#167BF7" fill-opacity="0.25"/>
<path opacity="0.6" d="M47.9289 301.949L49.6542 300.383L69.7747 322.54L68.0494 324.105L47.9289 301.949ZM69.1388 300.156L47.5723 323.002L69.1388 300.156Z" fill="#167BF7" fill-opacity="0.25"/>
<path opacity="0.6" d="M47.9171 322.555L68.0376 300.4L69.7642 301.965L49.6437 324.122L47.9171 322.555ZM346.628 480.377L324.124 478.425C317.607 477.877 311.826 474.094 307.768 467.81C303.771 461.648 301.988 453.779 302.726 445.603C303.464 437.428 306.6 429.985 311.58 424.616C316.684 419.125 323.017 416.441 329.534 416.989L352.038 418.942L350.317 438.526C351.117 442.185 351.3 445.969 350.993 449.812C350.687 453.655 349.764 457.316 348.349 460.794L346.628 480.377ZM327.813 419.247C322.586 419.247 317.422 421.688 313.241 426.202C308.567 431.205 305.677 438.22 305.001 445.847C304.324 453.473 305.984 460.855 309.735 466.59C313.363 472.263 318.59 475.62 324.309 476.107L344.476 477.877L346.013 460.245L346.074 460.061C347.446 456.713 348.296 453.174 348.595 449.568C348.904 445.909 348.719 442.309 347.919 438.832L347.857 438.648V438.464L349.395 421.016L329.228 419.247H327.812H327.813Z" fill="#167BF7" fill-opacity="0.25"/>
<path opacity="0.6" d="M348.749 480.377L331.587 478.902C318.396 477.735 308.808 462.918 310.336 445.826C311.8 428.736 323.771 415.825 336.963 416.993L354.124 418.469L357.543 438.51C358.352 442.286 358.578 446.163 358.216 450.008C357.849 453.943 356.994 457.692 355.528 461.257L348.75 480.378L348.749 480.377ZM335.252 419.206C323.893 419.206 313.877 430.887 312.594 446.011C311.251 461.811 319.801 475.46 331.771 476.505L347.161 477.857L353.39 460.397C354.746 456.995 355.59 453.411 355.894 449.761C356.199 446.073 356.017 442.445 355.223 438.94L352.108 420.62L336.718 419.269C336.23 419.269 335.741 419.206 335.252 419.206Z" fill="#167BF7" fill-opacity="0.25"/>
<path opacity="0.6" d="M346.042 480.377C345.494 480.377 344.944 480.377 344.396 480.316C334.095 479.393 325.806 470.281 323.551 457.414L308.925 457.783C307.767 457.815 306.614 457.613 305.536 457.19C304.457 456.767 303.474 456.132 302.646 455.321C301.814 454.514 301.152 453.548 300.702 452.479C300.252 451.411 300.022 450.262 300.026 449.103C300.026 446.703 301.001 444.424 302.708 442.761C304.475 441.099 306.73 440.238 309.107 440.361L324.1 441.161C327.574 426.816 338.179 417.274 349.698 418.259C362.864 419.429 372.431 434.266 370.908 451.381C370.176 459.631 367.069 467.141 362.132 472.56C357.56 477.67 351.893 480.377 346.042 480.377ZM325.563 455.013L325.685 456.06C327.452 468.373 335.072 477.176 344.579 477.977C350.308 478.47 355.915 476.006 360.487 471.02C365.119 465.971 367.983 458.891 368.654 451.196C369.994 435.374 361.4 421.706 349.516 420.659C338.91 419.736 329.098 428.971 326.173 442.699L325.989 443.685L309.047 442.761C307.278 442.638 305.633 443.254 304.353 444.486C303.074 445.716 302.402 447.379 302.402 449.103C302.402 450.826 303.074 452.489 304.292 453.658C305.511 454.891 307.156 455.506 308.863 455.444L325.563 455.013Z" fill="#167BF7" fill-opacity="0.25"/>
<path opacity="0.6" d="M348.736 472.763C348.311 472.763 347.947 472.763 347.52 472.701C342.721 472.272 338.466 469.511 335.549 464.788C332.632 460.188 331.355 454.361 331.842 448.35C332.936 435.776 341.748 426.268 351.471 427.128C361.195 427.986 368.244 438.904 367.151 451.478C366.056 463.5 357.973 472.763 348.737 472.763H348.736ZM350.195 429.458C342.112 429.458 335.063 437.799 334.09 448.595C333.605 454.117 334.82 459.453 337.433 463.562C339.986 467.611 343.632 470.002 347.704 470.371C356.211 471.106 363.869 462.519 364.841 451.294C365.813 440.008 359.737 430.256 351.228 429.519C350.864 429.458 350.559 429.458 350.195 429.458ZM309.541 454.995C308.79 454.998 308.047 454.852 307.353 454.567C306.658 454.281 306.028 453.86 305.497 453.329C304.966 452.798 304.546 452.168 304.26 451.473C303.974 450.779 303.828 450.035 303.831 449.284C303.828 448.533 303.974 447.788 304.259 447.094C304.545 446.399 304.966 445.768 305.496 445.237C306.027 444.706 306.658 444.286 307.352 444C308.046 443.714 308.79 443.568 309.541 443.572C310.292 443.569 311.035 443.715 311.729 444.001C312.423 444.287 313.054 444.707 313.584 445.238C314.115 445.769 314.535 446.4 314.821 447.095C315.107 447.789 315.252 448.533 315.249 449.284C315.249 452.392 312.712 454.995 309.541 454.995ZM309.541 445.984C307.7 445.984 306.242 447.444 306.242 449.284C306.242 451.124 307.7 452.584 309.541 452.584C311.38 452.584 312.838 451.124 312.838 449.284C312.838 447.444 311.38 445.984 309.541 445.984Z" fill="#167BF7" fill-opacity="0.25"/>
<path opacity="0.6" d="M305.101 449.919H313.98V452.457H305.101V449.919ZM376.163 485.454C375.915 485.454 375.607 485.454 375.36 485.392C373.138 485.147 371.225 483.914 369.929 481.943L369.867 481.821L359.562 461.74L344.071 479.911C342.22 481.698 339.813 482.621 337.469 482.374C335.247 482.128 333.334 480.896 332.037 478.925C329.384 474.859 330.186 468.701 333.827 465.127L333.888 465.066L352.217 450.468L338.085 433.221C335.431 429.155 336.234 422.995 339.874 419.422C341.727 417.636 344.133 416.713 346.478 416.959C348.7 417.206 350.613 418.437 351.909 420.409L351.97 420.532L362.276 440.613L377.766 422.442C379.619 420.655 382.024 419.731 384.37 419.977C386.592 420.224 388.505 421.455 389.8 423.427C392.454 427.493 391.653 433.652 388.01 437.225L387.949 437.287L369.621 451.885L383.754 469.132C386.406 473.197 385.605 479.356 381.963 482.929C380.298 484.592 378.199 485.454 376.163 485.454ZM371.966 480.773C372.892 482.128 374.187 482.99 375.668 483.114C377.333 483.298 379.001 482.683 380.358 481.328C383.198 478.556 383.877 473.689 381.839 470.548L367.831 453.486L366.288 454.718L367.09 448.867L368.201 450.222L386.469 435.623C389.245 432.851 389.925 427.924 387.887 424.843C386.962 423.488 385.666 422.627 384.185 422.442C382.58 422.257 380.914 422.872 379.557 424.227L363.51 443.014L364.19 444.369L359.562 443.999L360.673 442.644L349.996 421.764C349.07 420.409 347.775 419.547 346.293 419.422C344.627 419.239 342.961 419.855 341.602 421.209C338.764 423.982 338.085 428.848 340.121 431.989L354.131 449.05L355.674 447.819L354.871 453.671L353.761 452.315L335.493 466.913C332.716 469.686 332.037 474.612 334.074 477.695C335 479.048 336.295 479.911 337.777 480.095C339.382 480.28 341.048 479.665 342.405 478.31L358.451 459.522L357.771 458.167L362.399 458.537L361.289 459.892L371.966 480.773Z" fill="#167BF7" fill-opacity="0.25"/>
<path opacity="0.6" d="M355.448 467.387L359.814 434.561L362.124 434.868L357.758 467.694L355.448 467.387ZM73.9267 165.626C72.6498 165.626 71.7976 165.501 71.677 165.44L72.0415 163.142C72.1018 163.142 78.6098 164.198 84.0243 159.603C89.0115 155.319 91.5654 147.56 91.5654 136.696V102.177C91.5654 101.681 91.6271 90.0708 95.6414 78.2755C101.115 62.3827 111.273 53.9399 124.958 53.9399V56.2982C112.124 56.2982 103 63.9344 97.8309 79.0205C93.8768 90.4446 93.8165 102.115 93.8165 102.24V136.633C93.8165 148.305 91.0187 156.623 85.4219 161.404C81.3472 165.004 76.6026 165.626 73.9267 165.626ZM77.325 210.046H73.6409C69.0851 210.046 65.3329 206.716 65.3329 202.672V176.808C65.3329 172.763 69.0851 169.434 73.6396 169.434H77.3236C81.8795 169.434 85.6317 172.763 85.6317 176.806V202.672C85.6317 206.776 81.8795 210.046 77.325 210.046ZM73.5728 171.753C70.425 171.753 67.8121 174.072 67.8121 176.867V202.731C67.8121 205.527 70.425 207.847 73.5728 207.847H77.2568C80.4059 207.847 83.0188 205.527 83.0188 202.731V176.867C83.0188 174.072 80.4059 171.751 77.2568 171.751H73.5728V171.753Z" fill="#167BF7" fill-opacity="0.25"/>
<path opacity="0.6" d="M72.2499 210.046H68.5659C64.0101 210.046 60.2592 206.716 60.2592 202.672V176.808C60.2592 172.763 64.0101 169.434 68.5659 169.434H72.2499C76.8058 169.434 80.5567 172.763 80.5567 176.806V202.672C80.5567 206.776 76.8058 210.046 72.2499 210.046ZM68.4991 171.753C65.3499 171.753 62.737 174.072 62.737 176.867V202.731C62.737 205.527 65.3499 207.847 68.4991 207.847H72.1831C75.3309 207.847 77.9438 205.527 77.9438 202.731V176.867C77.9438 174.072 75.3309 171.751 72.1831 171.751H68.4991V171.753Z" fill="#167BF7" fill-opacity="0.25"/>
<path opacity="0.6" d="M69.7734 204.969C68.2601 204.967 66.8094 204.365 65.7393 203.294C64.6693 202.224 64.0672 200.772 64.0651 199.258C64.0651 196.079 66.6597 193.548 69.7734 193.548C72.8871 193.548 75.4816 196.143 75.4816 199.258C75.4816 202.373 72.9513 204.969 69.7734 204.969ZM69.7734 195.949C68.8973 195.953 68.0581 196.303 67.4386 196.923C66.8191 197.542 66.4694 198.382 66.4656 199.258C66.4691 200.135 66.8186 200.975 67.4382 201.595C68.0577 202.215 68.8971 202.565 69.7734 202.569C70.6499 202.565 71.4896 202.215 72.1094 201.595C72.7292 200.975 73.079 200.135 73.0824 199.258C73.0861 198.823 73.003 198.391 72.838 197.987C72.673 197.584 72.4294 197.218 72.1213 196.91C71.8133 196.602 71.4471 196.358 71.0439 196.193C70.6408 196.028 70.2089 195.945 69.7734 195.949ZM88.0912 556.529H56.5306C52.3143 556.529 48.8414 552.91 48.8414 548.517V542.962C48.8414 538.569 52.3143 534.952 56.5306 534.952H88.0912C92.3075 534.952 95.7804 538.569 95.7804 542.962V548.517C95.7804 552.91 92.3691 556.527 88.0912 556.527V556.529ZM56.5306 537.343C53.6162 537.343 51.1973 539.861 51.1973 542.897V548.453C51.1973 551.488 53.6162 554.008 56.5306 554.008H88.0912C91.0056 554.008 93.4232 551.49 93.4232 548.453V542.962C93.4232 539.926 91.0056 537.407 88.0912 537.407H56.5306V537.341V537.343Z" fill="#167BF7" fill-opacity="0.25"/>
<path opacity="0.6" d="M83.7281 556.529C82.9778 556.531 82.2345 556.384 81.541 556.098C80.8475 555.811 80.2175 555.391 79.687 554.86C79.1565 554.329 78.7362 553.699 78.4501 553.005C78.1639 552.311 78.0177 551.567 78.0198 550.817C78.0198 547.637 80.5763 545.105 83.7281 545.105C86.8798 545.105 89.4363 547.636 89.4363 550.817C89.4384 551.567 89.2921 552.311 89.006 553.005C88.7199 553.698 88.2995 554.329 87.769 554.859C87.2386 555.39 86.6085 555.811 85.915 556.097C85.2215 556.383 84.4783 556.53 83.7281 556.527V556.529ZM83.7281 547.342C81.8257 547.342 80.2197 548.873 80.2197 550.817C80.2197 552.759 81.7667 554.29 83.7281 554.29C85.6317 554.29 87.2364 552.759 87.2364 550.817C87.2364 548.873 85.6894 547.342 83.7281 547.342ZM111.877 498.146H106.324C101.933 498.146 98.3173 494.672 98.3173 490.454V458.879C98.3173 454.661 101.933 451.187 106.324 451.187H111.877C116.268 451.187 119.884 454.661 119.884 458.879V490.454C119.884 494.672 116.331 498.146 111.877 498.146ZM106.324 453.544C103.289 453.544 100.77 455.964 100.77 458.879V490.454C100.77 493.37 103.289 495.79 106.324 495.79H111.877C114.911 495.79 117.43 493.37 117.43 490.454V458.879C117.43 455.964 114.912 453.544 111.877 453.544H106.324Z" fill="#167BF7" fill-opacity="0.25"/>
<path opacity="0.6" d="M106.802 498.146H101.249C96.8581 498.146 93.2422 494.672 93.2422 490.454V458.879C93.2422 454.661 96.8581 451.187 101.249 451.187H106.802C111.194 451.187 114.809 454.661 114.809 458.879V490.454C114.809 494.672 111.193 498.146 106.802 498.146ZM101.249 453.544C98.215 453.544 95.6965 455.964 95.6965 458.879V490.454C95.6965 493.37 98.2137 495.789 101.249 495.789H106.802C109.837 495.789 112.356 493.37 112.356 490.454V458.879C112.356 455.964 109.837 453.544 106.802 453.544H101.249ZM72.8569 187.993C73.1086 188.646 72.8071 189.4 72.1542 189.652C71.5 189.903 70.7475 189.601 70.4958 188.948C70.2453 188.295 70.5456 187.54 71.1998 187.29C71.8527 187.038 72.6052 187.34 72.8569 187.993ZM102.123 246.853C93.7509 246.853 86.2413 242.036 83.1014 234.756C82.4852 234.931 81.8087 234.991 81.1322 234.991C76.638 234.991 72.9448 231.466 72.9448 227.18C72.9448 222.894 76.638 219.371 81.1322 219.371C81.8087 219.371 82.4865 219.428 83.1014 219.605C86.3029 212.323 93.8125 207.508 102.123 207.508C110.494 207.508 118.005 212.323 121.144 219.605C121.76 219.428 122.436 219.369 123.114 219.369C127.607 219.369 131.3 222.894 131.3 227.18C131.3 231.466 127.607 234.991 123.114 234.991C122.436 234.991 121.76 234.931 121.144 234.754C118.005 242.036 110.494 246.853 102.123 246.853ZM84.4557 231.937L84.887 233.052C87.4724 240.04 94.3658 244.679 102.123 244.679C109.879 244.679 116.774 239.981 119.359 233.052L119.789 231.937L120.897 232.407C121.603 232.684 122.355 232.824 123.113 232.817C126.314 232.817 128.961 230.292 128.961 227.239C128.961 224.185 126.314 221.661 123.114 221.661C122.375 221.661 121.575 221.779 120.899 222.071L119.789 222.541L119.359 221.426C116.774 214.438 109.879 209.798 102.123 209.798C94.3671 209.798 87.4724 214.497 84.887 221.426L84.4557 222.541L83.3478 222.071C82.6424 221.793 81.8902 221.654 81.1322 221.661C77.9306 221.661 75.285 224.185 75.285 227.239C75.285 230.292 77.9306 232.817 81.1322 232.817C81.8703 232.817 82.6714 232.699 83.3478 232.407L84.4557 231.937Z" fill="#167BF7" fill-opacity="0.25"/>
<path opacity="0.6" d="M102.123 241.775C93.7063 241.775 86.8994 234.903 86.8994 226.545C86.8994 218.187 93.7693 211.316 102.123 211.316C110.54 211.316 117.346 218.189 117.346 226.545C117.346 234.904 110.539 241.775 102.123 241.775ZM102.123 213.606C95.0069 213.606 89.1898 219.426 89.1898 226.545C89.1898 233.666 95.0069 239.484 102.123 239.484C109.24 239.484 115.057 233.666 115.057 226.545C115.057 219.426 109.24 213.606 102.123 213.606Z" fill="#167BF7" fill-opacity="0.25"/>
<path opacity="0.6" d="M121.022 231.622H80.6878C78.535 231.622 76.752 229.928 76.752 227.882V226.478C76.752 224.432 78.535 222.737 80.6878 222.737H121.022C123.173 222.737 124.956 224.433 124.956 226.478V227.882C124.956 229.985 123.235 231.622 121.022 231.622ZM80.7468 225.017C79.8867 225.017 79.1486 225.719 79.1486 226.537V227.941C79.1486 228.758 79.8867 229.459 80.7481 229.459H121.023C121.883 229.459 122.623 228.758 122.623 227.939V226.536C122.623 225.719 121.883 225.017 121.023 225.017H80.7468Z" fill="#167BF7" fill-opacity="0.25"/>
<path opacity="0.6" d="M102.123 235.43C97.2239 235.43 93.2422 231.447 93.2422 226.545C93.2422 221.644 97.2239 217.661 102.123 217.661C107.023 217.661 111.003 221.644 111.003 226.545C111.001 228.901 110.065 231.159 108.4 232.825C106.735 234.491 104.478 235.428 102.123 235.43ZM102.123 219.928C100.386 219.93 98.7199 220.622 97.4912 221.851C96.2626 223.08 95.5714 224.746 95.5693 226.485C95.5693 230.099 98.51 233.04 102.123 233.04C105.736 233.04 108.676 230.099 108.676 226.485C108.674 224.747 107.983 223.08 106.755 221.851C105.526 220.622 103.861 219.93 102.123 219.928ZM192.827 642.83C181.703 642.83 171.689 636.024 167.548 625.753C166.62 625.998 165.665 626.123 164.706 626.124C158.895 626.124 154.136 621.36 154.136 615.543C154.136 609.728 158.895 604.963 164.706 604.963C165.694 604.963 166.621 605.087 167.548 605.334C171.691 595.064 181.703 588.257 192.829 588.257C203.954 588.257 213.968 595.064 218.108 605.334C219.036 605.089 219.992 604.965 220.952 604.963C226.762 604.963 231.521 609.728 231.521 615.543C231.521 621.36 226.762 626.124 220.952 626.124C219.992 626.127 219.035 626.002 218.108 625.753C213.968 636.024 203.954 642.83 192.829 642.83H192.827ZM168.97 622.722L169.403 623.897C171.114 628.745 174.286 632.943 178.481 635.913C182.677 638.883 187.689 640.478 192.829 640.48C203.337 640.48 212.793 633.797 216.254 623.897L216.687 622.722L217.8 623.216C218.788 623.649 219.839 623.835 220.89 623.835C225.401 623.835 229.11 620.123 229.11 615.605C229.11 611.089 225.401 607.376 220.89 607.376C219.839 607.376 218.788 607.562 217.8 607.995L216.687 608.49L216.254 607.314C214.543 602.466 211.371 598.268 207.176 595.298C202.981 592.328 197.968 590.733 192.829 590.732C182.321 590.732 172.864 597.414 169.403 607.314L168.97 608.49L167.857 607.995C166.881 607.577 165.829 607.366 164.767 607.376C160.255 607.376 156.547 611.088 156.547 615.605C156.547 620.122 160.255 623.835 164.767 623.835C165.829 623.845 166.881 623.634 167.857 623.216L168.97 622.722Z" fill="#167BF7" fill-opacity="0.25"/>
<path opacity="0.6" d="M194.098 623.793C187.459 623.793 182.045 618.675 182.045 612.34C182.045 606.066 187.46 600.948 194.098 600.948C200.735 600.948 206.149 606.066 206.149 612.34C206.149 618.615 200.734 623.793 194.098 623.793ZM194.098 603.201C188.813 603.201 184.43 607.284 184.43 612.34C184.43 617.336 188.747 621.478 194.098 621.478C199.447 621.478 203.764 617.397 203.764 612.34C203.764 607.344 199.382 603.202 194.098 603.202V603.201ZM282.899 349.654C272.743 349.654 264.506 341.129 264.506 330.617C264.506 320.105 272.743 311.579 282.899 311.579C293.057 311.579 301.293 320.105 301.293 330.617C301.293 341.129 293.057 349.654 282.899 349.654ZM282.899 314.015C274.043 314.015 266.859 321.452 266.859 330.617C266.859 339.783 274.043 347.218 282.899 347.218C291.757 347.218 298.941 339.783 298.941 330.617C298.941 321.45 291.757 314.015 282.899 314.015Z" fill="#167BF7" fill-opacity="0.25"/>
<path opacity="0.6" d="M290.511 349.654C280.353 349.654 272.118 341.129 272.118 330.617C272.118 320.105 280.353 311.579 290.511 311.579C300.669 311.579 308.905 320.105 308.905 330.617C308.905 341.129 300.669 349.654 290.511 349.654ZM290.511 314.015C281.654 314.015 274.47 321.452 274.47 330.617C274.47 339.783 281.654 347.218 290.511 347.218C299.369 347.218 306.553 339.783 306.553 330.617C306.553 321.45 299.369 314.015 290.511 314.015Z" fill="#167BF7" fill-opacity="0.25"/>
<path opacity="0.6" d="M312.486 340.769H288.835C283.808 340.769 279.728 336.611 279.728 331.487V327.207C279.728 322.084 283.808 317.925 288.835 317.925H312.486C317.512 317.925 321.592 322.084 321.592 327.207V331.487C321.592 336.611 317.512 340.77 312.486 340.77V340.769ZM288.835 320.216C285.05 320.216 281.975 323.351 281.975 327.207V331.487C281.975 335.346 285.05 338.479 288.835 338.479H312.486C316.271 338.479 319.345 335.344 319.345 331.488V327.207C319.345 323.351 316.271 320.216 312.486 320.216H288.835Z" fill="#167BF7" fill-opacity="0.25"/>
<path opacity="0.6" d="M310.809 340.769C304.158 340.769 298.758 335.651 298.758 329.348C298.758 323.043 304.158 317.925 310.809 317.925C317.461 317.925 322.861 323.043 322.861 329.348C322.861 335.651 317.46 340.77 310.809 340.77V340.769ZM310.809 320.235C305.541 320.235 301.259 324.291 301.259 329.285C301.259 334.278 305.541 338.335 310.809 338.335C316.078 338.335 320.358 334.278 320.358 329.285C320.358 324.291 316.078 320.235 310.809 320.235ZM285.983 328.87C286.235 329.523 285.933 330.278 285.28 330.528C284.627 330.78 283.874 330.478 283.622 329.825C283.371 329.172 283.673 328.418 284.326 328.167C284.979 327.915 285.731 328.217 285.983 328.87Z" fill="#167BF7" fill-opacity="0.25"/>
<path opacity="0.6" d="M280.997 335.693H302.564V338.231H280.997V335.693ZM107.833 467.686C94.8679 467.686 84.3626 457.176 84.3626 444.208C84.3626 431.237 94.8679 420.727 107.831 420.727C120.795 420.727 131.3 431.237 131.3 444.207C131.3 457.114 120.795 467.686 107.833 467.686ZM107.833 423.002C96.158 423.002 86.6975 432.466 86.6975 444.145C86.6975 455.823 96.158 465.288 107.831 465.288C119.505 465.288 128.965 455.823 128.965 444.145C128.965 432.528 119.505 423.002 107.831 423.002H107.833Z" fill="#167BF7" fill-opacity="0.25"/>
<path opacity="0.6" d="M98.9518 467.686C85.9883 467.686 75.4816 457.176 75.4816 444.208C75.4816 431.237 85.9883 420.727 98.9518 420.727C111.914 420.727 122.419 431.237 122.419 444.207C122.481 457.114 111.914 467.686 98.9518 467.686ZM98.9518 423.002C87.2783 423.002 77.8179 432.466 77.8179 444.145C77.8179 455.823 87.2783 465.288 98.9518 465.288C110.624 465.288 120.086 455.823 120.086 444.145C120.147 432.528 110.624 423.002 98.9518 423.002Z" fill="#167BF7" fill-opacity="0.25"/>
<path opacity="0.6" d="M101.489 458.802H82.459C77.2083 458.802 72.9448 454.64 72.9448 449.515V438.9C72.9448 433.773 77.2083 429.611 82.459 429.611H101.489C106.741 429.611 111.003 433.773 111.003 438.9V449.515C111.003 454.64 106.741 458.802 101.489 458.802ZM82.459 431.964C78.5049 431.964 75.2928 435.099 75.2928 438.96V449.575C75.2928 453.435 78.5049 456.571 82.459 456.571H101.489C105.443 456.571 108.656 453.435 108.656 449.575V438.96C108.656 435.1 105.443 431.964 101.489 431.964H82.459ZM355.844 529.876C347.475 529.876 340.622 523.019 340.622 514.645C340.622 506.272 347.475 499.415 355.844 499.415C364.214 499.415 371.068 506.272 371.068 514.645C371.068 523.079 364.214 529.876 355.844 529.876ZM355.844 501.721C348.687 501.721 342.927 507.545 342.927 514.645C342.927 521.805 348.748 527.57 355.844 527.57C363.003 527.57 368.763 521.745 368.763 514.645C368.763 507.545 362.941 501.721 355.844 501.721Z" fill="#167BF7" fill-opacity="0.25"/>
<path opacity="0.6" d="M362.187 524.798C356.593 524.798 352.04 520.243 352.04 514.645C352.04 509.047 356.593 504.492 362.187 504.492C367.783 504.492 372.337 509.047 372.337 514.645C372.337 520.243 367.848 524.798 362.188 524.798H362.187ZM362.187 506.966C360.152 506.97 358.202 507.78 356.763 509.219C355.325 510.659 354.515 512.61 354.511 514.645C354.515 516.681 355.325 518.632 356.764 520.072C358.203 521.511 360.153 522.321 362.188 522.325C364.223 522.321 366.173 521.511 367.612 520.071C369.051 518.632 369.861 516.681 369.864 514.645C369.868 513.636 369.672 512.635 369.288 511.702C368.903 510.769 368.338 509.921 367.624 509.207C366.911 508.493 366.063 507.927 365.13 507.543C364.197 507.158 363.197 506.962 362.188 506.966H362.187ZM110.961 114.24L119.721 105.481L121.371 107.128L112.61 115.887L110.961 114.24Z" fill="#167BF7" fill-opacity="0.25"/>
<path opacity="0.6" d="M110.961 107.13L112.609 105.48L121.371 114.24L119.721 115.887L110.961 107.13ZM130.667 127.551C128.256 127.551 126.227 125.584 126.227 123.109C126.227 120.634 128.193 118.667 130.667 118.667C133.077 118.667 135.106 120.634 135.106 123.109C135.106 125.584 133.14 127.551 130.667 127.551ZM130.667 121.142C129.588 121.142 128.636 122.029 128.636 123.172C128.636 124.314 129.525 125.202 130.667 125.202C131.745 125.202 132.697 124.314 132.697 123.172C132.697 122.031 131.809 121.142 130.667 121.142ZM206.533 357.269L204.881 355.666L233.96 327.472C242.838 318.867 254.715 314.117 267.265 314.117H282.266V316.373H267.268C255.328 316.373 244.064 320.885 235.616 329.075L206.534 357.269H206.533Z" fill="#167BF7" fill-opacity="0.25"/>
<path opacity="0.6" d="M200.19 357.269L198.538 355.666L227.617 327.472C236.495 318.867 248.372 314.117 260.923 314.117H275.922V316.373H260.924C248.984 316.373 237.719 320.885 229.272 329.075L200.19 357.269ZM279.728 348.386H282.265V357.269H279.728V348.386ZM94.5113 339.501H97.0482V361.077H94.5113V339.501ZM163.016 358.539H160.745V339.675C160.745 329.715 152.976 321.559 143.353 321.559C133.73 321.559 125.96 329.652 125.96 339.675V358.539H123.69V339.675C123.69 328.409 132.475 319.194 143.353 319.194C154.23 319.194 163.016 328.346 163.016 339.675V358.539Z" fill="#167BF7" fill-opacity="0.25"/>
<path opacity="0.6" d="M159.211 358.539H156.939V339.675C156.939 329.715 149.17 321.559 139.547 321.559C129.924 321.559 122.155 329.652 122.155 339.675V358.539H119.884V339.675C119.884 328.409 128.669 319.194 139.547 319.194C150.424 319.194 159.211 328.346 159.211 339.675V358.539Z" fill="#167BF7" fill-opacity="0.25"/>
<path opacity="0.6" d="M137.01 349.654C130.35 349.654 124.958 344.544 124.958 338.231C124.958 331.92 130.35 326.81 137.01 326.81C143.67 326.81 149.061 331.92 149.061 338.231C148.998 344.544 143.607 349.655 137.01 349.655V349.654ZM137.01 329.153C131.682 329.153 127.369 333.242 127.369 338.291C127.369 343.341 131.682 347.429 137.01 347.429C142.338 347.429 146.651 343.341 146.651 338.291C146.588 333.242 142.275 329.153 137.01 329.153Z" fill="#167BF7" fill-opacity="0.25"/>
<path opacity="0.6" d="M129.654 331.583L131.302 329.934L146.09 344.72L144.443 346.368L129.654 331.583Z" fill="#167BF7" fill-opacity="0.25"/>
<path opacity="0.6" d="M129.654 344.764L144.443 329.977L146.091 331.626L131.302 346.412L129.654 344.764ZM326.667 408.035C324.313 408.033 322.055 407.097 320.39 405.431C318.725 403.766 317.788 401.507 317.786 399.151C317.786 394.25 321.768 390.268 326.667 390.268C331.566 390.268 335.547 394.25 335.547 399.151C335.545 401.507 334.609 403.766 332.944 405.431C331.279 407.097 329.022 408.033 326.667 408.035ZM326.667 392.596C324.93 392.598 323.264 393.289 322.035 394.518C320.807 395.747 320.115 397.413 320.113 399.151C320.113 402.766 323.054 405.707 326.667 405.707C330.28 405.707 333.22 402.766 333.22 399.151C333.218 397.413 332.527 395.747 331.298 394.518C330.07 393.289 328.404 392.598 326.667 392.596Z" fill="#167BF7" fill-opacity="0.25"/>
<path opacity="0.6" d="M319.943 395.634L321.592 393.985L332.565 404.955L330.917 406.603L319.943 395.634Z" fill="#167BF7" fill-opacity="0.25"/>
<path opacity="0.6" d="M319.944 404.898L330.917 393.929L332.565 395.575L321.592 406.546L319.944 404.898ZM192.827 474.033C186.167 474.033 180.776 468.923 180.776 462.608C180.776 456.297 186.169 451.187 192.829 451.187C199.489 451.187 204.88 456.297 204.88 462.61C204.88 468.923 199.489 474.033 192.829 474.033H192.827ZM192.827 453.532C187.501 453.532 183.187 457.62 183.187 462.67C183.187 467.72 187.501 471.808 192.829 471.808C198.157 471.808 202.47 467.72 202.47 462.67C202.47 457.62 198.157 453.532 192.829 453.532H192.827Z" fill="#167BF7" fill-opacity="0.25"/>
<path opacity="0.6" d="M183.879 455.606L185.527 453.958L200.317 468.744L198.669 470.392L183.879 455.606Z" fill="#167BF7" fill-opacity="0.25"/>
<path opacity="0.6" d="M183.92 468.748L198.71 453.962L200.359 455.611L185.569 470.395L183.92 468.748ZM324.232 310.31C324.082 310.314 323.933 310.283 323.797 310.22C323.661 310.158 323.54 310.064 323.446 309.948L304.14 290.691C303.237 289.799 302.521 288.737 302.033 287.565C301.544 286.394 301.293 285.138 301.295 283.869V256.883C301.295 256.279 301.78 255.736 302.444 255.736C303.11 255.736 303.594 256.219 303.594 256.883V283.869C303.594 285.86 304.381 287.673 305.773 289.06L325.081 308.317C325.504 308.741 325.504 309.465 325.081 309.948C324.97 310.061 324.838 310.151 324.693 310.213C324.547 310.276 324.391 310.308 324.232 310.31Z" fill="#167BF7" fill-opacity="0.25"/>
<path opacity="0.6" d="M325.555 305.234C325.396 305.232 325.238 305.198 325.091 305.134C324.945 305.07 324.813 304.977 324.703 304.861L301.615 280.579C301.188 280.084 301.188 279.34 301.615 278.906C302.102 278.473 302.834 278.473 303.259 278.906L326.346 303.189C326.773 303.685 326.773 304.428 326.346 304.861C326.164 305.172 325.859 305.234 325.555 305.234ZM325.566 300.156C325.408 300.155 325.251 300.122 325.106 300.058C324.961 299.995 324.829 299.904 324.72 299.789L300.343 274.213C299.921 273.722 299.921 272.986 300.343 272.558C300.825 272.127 301.549 272.127 301.972 272.558L326.35 298.134C326.772 298.623 326.772 299.359 326.35 299.789C326.109 300.034 325.807 300.156 325.566 300.156ZM328.003 293.811C327.848 293.815 327.694 293.784 327.553 293.719C327.412 293.654 327.288 293.558 327.19 293.437L300.353 266.63C299.917 266.195 299.917 265.446 300.353 264.948C300.79 264.511 301.54 264.511 302.039 264.948L328.876 291.754C329.313 292.19 329.313 292.939 328.876 293.437C328.763 293.554 328.627 293.647 328.477 293.712C328.327 293.776 328.166 293.809 328.003 293.811ZM34.8867 404.229H46.3045V406.767H34.8867V404.229ZM330.473 507.03C328.402 507.03 326.667 505.293 326.667 503.222C326.667 501.153 328.403 499.415 330.473 499.415C332.542 499.415 334.278 501.153 334.278 503.222C334.278 505.295 332.542 507.03 330.473 507.03ZM330.473 501.954C330.222 501.954 329.977 502.028 329.769 502.168C329.56 502.307 329.398 502.505 329.302 502.737C329.206 502.969 329.181 503.224 329.23 503.47C329.279 503.716 329.399 503.942 329.577 504.119C329.754 504.297 329.98 504.417 330.226 504.466C330.472 504.515 330.727 504.49 330.958 504.394C331.19 504.298 331.388 504.136 331.527 503.927C331.666 503.718 331.741 503.473 331.741 503.222C331.741 502.488 331.207 501.954 330.473 501.954ZM287.34 565.412C285.27 565.412 283.534 563.674 283.534 561.605C283.534 559.532 285.27 557.797 287.34 557.797C289.41 557.797 291.146 559.534 291.146 561.605C291.152 562.106 291.057 562.604 290.868 563.069C290.679 563.533 290.399 563.955 290.044 564.31C289.689 564.665 289.268 564.945 288.803 565.134C288.339 565.324 287.841 565.418 287.34 565.412ZM287.34 560.335C286.671 560.335 286.071 560.936 286.071 561.605C286.071 562.272 286.606 562.873 287.34 562.873C288.074 562.873 288.609 562.339 288.609 561.605C288.609 561.438 288.576 561.273 288.513 561.119C288.449 560.965 288.356 560.825 288.238 560.707C288.12 560.589 287.98 560.495 287.826 560.431C287.672 560.368 287.507 560.335 287.34 560.335ZM221.372 592.064C219.302 592.064 217.567 590.328 217.567 588.257C217.567 586.186 219.302 584.449 221.372 584.449C223.443 584.449 225.178 586.186 225.178 588.257C225.178 590.328 223.443 592.064 221.372 592.064ZM221.372 586.988C220.704 586.988 220.103 587.589 220.103 588.257C220.103 588.926 220.704 589.526 221.372 589.526C221.539 589.526 221.704 589.493 221.858 589.43C222.012 589.366 222.152 589.272 222.269 589.154C222.387 589.036 222.48 588.896 222.544 588.742C222.608 588.588 222.64 588.423 222.64 588.257C222.64 587.588 222.04 586.987 221.372 586.987V586.988ZM340.622 404.229H352.04V406.767H340.622V404.229ZM191.56 559.065C173.246 559.065 155.977 555.723 143.009 549.647C129.734 543.448 122.421 535.062 122.421 526.068C122.421 517.074 129.734 508.688 143.009 502.489C155.975 496.411 173.246 493.069 191.56 493.069C209.875 493.069 227.144 496.411 240.111 502.489C253.385 508.688 260.7 517.074 260.7 526.068C260.7 535.062 253.385 543.447 240.111 549.647C227.144 555.723 209.875 559.065 191.56 559.065ZM191.56 495.317C154.747 495.317 124.756 509.113 124.756 526.068C124.756 543.023 154.747 556.817 191.56 556.817C228.373 556.817 258.363 543.023 258.363 526.068C258.363 509.113 228.372 495.317 191.56 495.317Z" fill="#167BF7" fill-opacity="0.25"/>
<path opacity="0.6" d="M133.838 527.336C133.834 528.345 133.432 529.311 132.719 530.024C132.006 530.737 131.041 531.139 130.033 531.144C129.024 531.14 128.059 530.737 127.346 530.024C126.633 529.311 126.231 528.345 126.227 527.336C126.231 526.328 126.634 525.362 127.346 524.649C128.059 523.936 129.025 523.533 130.033 523.529C131.041 523.533 132.006 523.936 132.719 524.649C133.432 525.362 133.834 526.328 133.838 527.336ZM254.356 527.336C254.351 528.345 253.949 529.311 253.236 530.024C252.523 530.737 251.558 531.14 250.55 531.144C249.542 531.139 248.576 530.737 247.864 530.024C247.151 529.311 246.749 528.345 246.745 527.336C246.749 526.328 247.151 525.362 247.864 524.649C248.576 523.936 249.542 523.533 250.55 523.529C252.639 523.603 254.356 525.247 254.356 527.336ZM108.134 533.683C74.3423 499.95 62.5233 459.643 58.5234 431.809C54.214 401.641 57.9688 379.09 57.9688 378.845L60.2461 379.212C60.1845 379.459 56.5529 401.701 60.8006 431.502C64.7403 458.967 76.4347 498.722 109.735 531.962L108.134 533.683Z" fill="#167BF7" fill-opacity="0.25"/>
<path opacity="0.6" d="M191.608 424.535L191.301 424.41L38.6926 377.576H346.965L191.607 424.535H191.608ZM54.2638 379.927L191.608 422.06L331.087 379.866H54.2651V379.927H54.2638Z" fill="#167BF7" fill-opacity="0.25"/>
<path opacity="0.6" d="M190.925 423.265H193.462V452.457H190.925V423.265ZM311.527 551.452C311.366 551.45 311.207 551.417 311.06 551.354C310.912 551.29 310.778 551.198 310.666 551.083L239.02 478.455C236.681 476.063 235.327 472.873 235.327 469.5V409.201C235.327 409.048 235.358 408.896 235.417 408.754C235.475 408.612 235.562 408.484 235.67 408.375C235.779 408.267 235.908 408.181 236.05 408.123C236.191 408.065 236.343 408.035 236.497 408.035C237.173 408.035 237.666 408.527 237.666 409.202V469.561C237.666 472.321 238.712 474.897 240.681 476.86L312.389 549.488C312.82 549.917 312.82 550.654 312.389 551.145C312.142 551.328 311.835 551.452 311.527 551.452Z" fill="#167BF7" fill-opacity="0.25"/>
<path opacity="0.6" d="M315.34 547.644C315.188 547.648 315.036 547.617 314.898 547.553C314.76 547.489 314.639 547.393 314.544 547.274L235.648 467.135C235.22 466.703 235.22 465.964 235.648 465.472C236.077 465.04 236.811 465.04 237.3 465.472L316.196 545.673C316.625 546.104 316.625 546.843 316.196 547.336C315.952 547.582 315.645 547.644 315.34 547.644ZM320.449 542.567C320.134 542.567 319.821 542.445 319.633 542.199L234.387 458.237C233.948 457.809 233.948 457.073 234.387 456.584C234.826 456.155 235.579 456.155 236.08 456.584L321.263 540.544C321.702 540.973 321.702 541.708 321.263 542.197C321.048 542.418 320.757 542.55 320.449 542.565V542.567ZM324.218 537.489C324.066 537.494 323.915 537.463 323.776 537.399C323.638 537.335 323.516 537.24 323.421 537.121L238.187 450.637C237.757 450.205 237.757 449.466 238.187 448.972C238.615 448.541 239.351 448.541 239.841 448.972L325.076 535.456C325.506 535.888 325.506 536.628 325.076 537.121C324.964 537.236 324.831 537.328 324.684 537.392C324.537 537.455 324.378 537.488 324.218 537.489ZM24.7379 456.264C19.8386 456.264 15.857 452.281 15.857 447.379C15.857 442.478 19.8386 438.496 24.7379 438.496C29.6373 438.496 33.6176 442.478 33.6176 447.379C33.6159 449.735 32.6798 451.994 31.015 453.659C29.3501 455.325 27.0926 456.262 24.7379 456.264ZM24.7379 440.762C23.0005 440.764 21.3349 441.456 20.1064 442.685C18.878 443.914 18.1871 445.581 18.1854 447.319C18.1875 449.057 18.8785 450.723 20.1069 451.952C21.3353 453.181 23.0007 453.872 24.7379 453.874C26.4752 453.872 28.1406 453.181 29.369 451.952C30.5974 450.723 31.2884 449.057 31.2905 447.319C31.2888 445.581 30.5979 443.914 29.3695 442.685C28.141 441.456 26.4754 440.764 24.7379 440.762ZM27.2748 466.417H29.8117V546.374H27.2748V466.417ZM36.1558 386.46H24.2712C21.7252 386.46 19.6629 384.473 19.6629 382.018C19.6629 379.563 21.7252 377.576 24.2712 377.576H36.1558V379.797H24.2712C22.9982 379.797 21.9677 380.79 21.9677 382.018C21.9677 383.246 22.9982 384.238 24.2712 384.238H36.1558V386.46Z" fill="#167BF7" fill-opacity="0.25"/>
</g>
</svg>
