<svg width="491" height="291" viewBox="0 0 491 291" fill="none" xmlns="http://www.w3.org/2000/svg">
<path d="M114.98 199.799C119.83 201.903 127.697 196.012 137.24 201.285C141.024 203.376 136.03 207.224 131.308 207.225C126.134 207.225 119.446 202.591 116.504 202.119C111.976 201.728 114.98 199.799 114.98 199.799Z" fill="#E7E8E5"/>
<path d="M116.217 200.265C114.412 199.929 109.892 193.632 107.657 193.091C105.421 192.548 109.505 196.519 108.285 199.024C107.067 201.529 105.859 202.409 104.908 204.263C104.241 205.561 104.421 205.868 106.961 204.363C109.592 202.807 113.112 200.819 117.689 202.44L116.217 200.265Z" fill="#E7E8E5"/>
<path d="M78.3278 221.703C82.4092 223.475 89.0318 218.516 97.0638 222.955C100.249 224.715 96.0465 227.953 92.0705 227.953C87.7158 227.955 82.0865 224.053 79.6105 223.656C75.7985 223.328 78.3278 221.703 78.3278 221.703Z" fill="#E7E8E5"/>
<path d="M79.3678 222.096C77.8505 221.813 74.0438 216.512 72.1638 216.057C70.2825 215.6 73.7198 218.943 72.6932 221.051C71.6678 223.16 70.6505 223.9 69.8492 225.461C69.2878 226.555 69.4398 226.812 71.5785 225.545C73.7918 224.235 76.7545 222.563 80.6078 223.927L79.3678 222.096Z" fill="#E7E8E5"/>
<path d="M59.1489 195.471C62.1937 196.791 67.1328 193.093 73.1225 196.404C75.4985 197.716 72.3638 200.132 69.3985 200.132C66.1516 200.132 61.9526 197.223 60.1062 196.927C57.2636 196.681 59.1489 195.471 59.1489 195.471Z" fill="#E7E8E5"/>
<path d="M59.9256 195.763C58.7926 195.552 55.9552 191.599 54.5521 191.259C53.1489 190.919 55.7125 193.411 54.9474 194.984C54.1822 196.557 53.424 197.109 52.826 198.273C52.4084 199.088 52.5202 199.28 54.115 198.336C55.7666 197.359 57.976 196.111 60.85 197.128L59.9256 195.763Z" fill="#E7E8E5"/>
<path d="M391.585 7.98013C387.068 9.94014 379.743 4.45479 370.856 9.36679C367.333 11.3135 371.983 14.8961 376.381 14.8961C381.197 14.8961 387.427 10.5801 390.167 10.1415C394.383 9.7788 391.585 7.98013 391.585 7.98013Z" fill="#E7E8E5"/>
<path d="M390.433 8.41613C392.113 8.1028 396.324 2.23879 398.404 1.73345C400.485 1.22945 396.682 4.92678 397.817 7.25878C398.952 9.59211 400.077 10.4121 400.964 12.1388C401.584 13.3468 401.417 13.6321 399.052 12.2308C396.602 10.7814 393.325 8.93079 389.061 10.4401L390.433 8.41613Z" fill="#E7E8E5"/>
<path d="M425.716 28.3788C421.913 30.0281 415.746 25.4108 408.268 29.5441C405.301 31.1828 409.214 34.1988 412.917 34.2001C416.972 34.2001 422.214 30.5668 424.52 30.1974C428.069 29.8908 425.716 28.3788 425.716 28.3788Z" fill="#E7E8E5"/>
<path d="M424.745 28.7441C426.16 28.4801 429.703 23.5455 431.455 23.1201C433.207 22.6961 430.005 25.8081 430.961 27.7708C431.917 29.7348 432.864 30.4241 433.611 31.8774C434.132 32.8961 433.992 33.1348 432 31.9561C429.939 30.7361 427.179 29.1788 423.591 30.4495L424.745 28.7441Z" fill="#E7E8E5"/>
<path d="M443.573 3.95081C440.737 5.18014 436.138 1.73748 430.56 4.82014C428.348 6.04281 431.268 8.29078 434.028 8.29211C437.053 8.29211 440.962 5.5828 442.682 5.3068C445.329 5.0788 443.573 3.95081 443.573 3.95081Z" fill="#E7E8E5"/>
<path d="M442.849 4.22413C443.904 4.0268 446.548 0.345437 447.855 0.0294371C449.161 -0.287896 446.775 2.03344 447.487 3.49744C448.199 4.96277 448.904 5.47743 449.461 6.5601C449.851 7.31877 449.745 7.49879 448.261 6.61879C446.724 5.70813 444.667 4.54677 441.989 5.49477L442.849 4.22413Z" fill="#E7E8E5"/>
<path d="M195.381 79.9481C191.796 71.7015 185.336 65.0281 178.453 59.2401C171.572 53.4508 164.076 48.4135 157.312 42.4868C156.657 41.9135 155.969 41.2601 155.835 40.4001C155.489 38.1948 158.193 37.0788 159.949 37.3601C161.12 37.5481 162.26 38.0161 163.445 37.9708C164.577 37.9281 165.632 37.4228 166.728 37.1428C168.891 36.5894 171.133 36.9188 173.327 37.0294C174.187 37.0721 175.024 37.0188 175.853 36.9641C177.259 36.8734 178.64 36.7828 180.076 37.1628C185.8 38.6814 189.172 44.9881 194.803 46.8254C198.948 48.1774 203.835 46.9241 207.556 49.1974C211.227 51.4401 212.321 56.2641 212.384 60.5668C212.433 63.8841 211.924 66.2601 212.524 69.5481C213.119 72.8108 215.957 81.2094 222.123 93.7081C221.235 94.6094 201.079 103.32 200.709 101.373C199.765 96.3828 197.269 84.2921 195.381 79.9481Z" fill="#F47089"/>
<path d="M168.604 51.4961C171.525 50.3388 178.268 52.7068 186.286 59.2681C194.305 65.8295 200.377 70.8455 206.333 69.2441C212.289 67.6415 212.24 65.4588 212.24 65.4588C212.24 65.4588 212.922 61.0855 212.922 57.0761C212.922 53.0668 212.029 48.8148 206.246 47.2934C199.898 45.6228 198.133 47.0575 193.758 44.1415C189.385 41.2268 182.277 32.8428 174.441 23.3668C166.604 13.8895 163.309 13.3428 150.734 13.1601C138.16 12.9788 108.972 16.0921 108.832 21.6441C108.762 24.3415 145.026 35.9174 168.604 51.4961Z" fill="#26B6A6"/>
<path d="M204.051 69.5441C198.801 69.5441 193.285 64.9935 186.287 59.2681C179.565 53.7681 173.739 51.2135 170.309 51.2135C169.648 51.2135 169.076 51.3094 168.604 51.4961C145.049 35.9321 108.833 24.3641 108.832 21.6521C108.832 21.6495 108.832 21.6468 108.832 21.6441C108.968 16.2455 136.563 13.1535 149.649 13.1535C150.023 13.1535 150.387 13.1548 150.735 13.1601C163.309 13.3428 166.604 13.8895 174.441 23.3668C182.277 32.8428 189.385 41.2268 193.759 44.1415C194.168 44.4135 194.553 44.6481 194.923 44.8508C191.784 43.7748 189.081 41.9121 185.44 38.5348C180.399 33.8628 168.648 19.4575 162.12 17.2535C161.753 17.1295 161.457 17.0708 161.227 17.0708C160.771 17.0708 160.569 17.3001 160.569 17.7068C160.573 20.7348 171.808 33.5508 171.808 33.5508C171.808 33.5508 144.849 15.9948 139.669 15.9948C139.323 15.9948 139.075 16.0735 138.937 16.2415C138.845 16.3535 138.801 16.4895 138.8 16.6468C138.793 20.2441 161.601 35.0895 161.601 35.0895C161.601 35.0895 126.733 19.9321 119.401 19.9321C119.287 19.9321 119.18 19.9361 119.08 19.9441C117.484 20.0615 116.731 20.3681 116.731 20.8548C116.728 22.3681 124.017 25.6215 135.909 30.3415C152.259 36.8308 176.309 46.6881 184.525 51.4495C189.565 54.3695 195.427 55.5748 200.664 55.5748C204.164 55.5748 207.387 55.0361 209.9 54.1121C211.096 53.6721 211.916 53.0988 212.26 52.4228C211.483 50.2135 209.852 48.3241 206.533 47.3721C212.059 48.9575 212.923 53.1348 212.923 57.0761C212.923 61.0855 212.24 65.4588 212.24 65.4588C212.24 65.4588 212.24 65.4601 212.24 65.4614C212.24 65.5268 212.197 67.6668 206.333 69.2441C205.576 69.4481 204.816 69.5441 204.051 69.5441ZM206.527 47.3708C206.519 47.3681 206.509 47.3654 206.5 47.3628C206.509 47.3654 206.517 47.3681 206.527 47.3708ZM206.488 47.3588C206.483 47.3574 206.479 47.3561 206.473 47.3548C206.479 47.3561 206.483 47.3574 206.488 47.3588ZM206.455 47.3495C206.449 47.3481 206.445 47.3468 206.44 47.3455C206.445 47.3468 206.451 47.3481 206.455 47.3495ZM206.421 47.3401C206.417 47.3401 206.415 47.3388 206.411 47.3375C206.413 47.3388 206.417 47.3401 206.421 47.3401ZM206.385 47.3308C206.381 47.3295 206.379 47.3294 206.376 47.3281C206.379 47.3294 206.381 47.3295 206.385 47.3308ZM206.348 47.3201C206.347 47.3201 206.345 47.3201 206.345 47.3201C206.345 47.3201 206.347 47.3201 206.348 47.3201ZM206.317 47.3121C206.316 47.3121 206.313 47.3108 206.312 47.3108C206.313 47.3108 206.316 47.3121 206.317 47.3121ZM206.283 47.3028C206.281 47.3028 206.279 47.3015 206.277 47.3015C206.279 47.3015 206.28 47.3028 206.283 47.3028ZM206.212 47.2841C206.205 47.2828 206.199 47.2815 206.193 47.2788C206.199 47.2815 206.205 47.2828 206.212 47.2841ZM206.177 47.2748C206.169 47.2735 206.161 47.2708 206.155 47.2695C206.163 47.2708 206.169 47.2735 206.177 47.2748ZM206.143 47.2668C206.135 47.2641 206.127 47.2614 206.119 47.2601C206.127 47.2614 206.135 47.2641 206.143 47.2668ZM206.108 47.2575C206.101 47.2548 206.093 47.2535 206.087 47.2521C206.093 47.2535 206.101 47.2548 206.108 47.2575ZM206.073 47.2481C206.065 47.2468 206.059 47.2441 206.051 47.2428C206.059 47.2441 206.065 47.2468 206.073 47.2481ZM206.04 47.2401C206.032 47.2375 206.025 47.2361 206.017 47.2335C206.025 47.2361 206.032 47.2375 206.04 47.2401ZM206.003 47.2308C205.996 47.2281 205.989 47.2268 205.983 47.2254C205.989 47.2268 205.996 47.2281 206.003 47.2308ZM205.968 47.2215C205.963 47.2201 205.955 47.2175 205.949 47.2161C205.956 47.2175 205.961 47.2201 205.968 47.2215ZM205.925 47.2108C205.921 47.2095 205.919 47.2081 205.915 47.2081C205.919 47.2081 205.921 47.2095 205.925 47.2108Z" fill="#1875E8"/>
<path d="M209.9 54.1121C211.096 53.6721 211.916 53.0988 212.26 52.4228C211.46 50.1508 209.757 48.2175 206.246 47.2935C200.513 45.7854 198.512 46.7975 194.959 44.8641C191.805 43.7881 189.096 41.9241 185.44 38.5348C180.399 33.8628 168.648 19.4575 162.12 17.2535C155.591 15.0468 171.808 33.5508 171.808 33.5508C171.808 33.5508 141.124 13.5681 138.937 16.2415C136.751 18.9148 161.601 35.0895 161.601 35.0895C161.601 35.0895 125.64 19.4575 119.08 19.9441C112.519 20.4295 120.197 24.1055 135.909 30.3415C152.258 36.8308 176.309 46.6881 184.525 51.4495C192.936 56.3215 203.627 56.4201 209.9 54.1121Z" fill="#26B6A6"/>
<path d="M200.664 55.5748C195.426 55.5748 189.565 54.3694 184.525 51.4494C176.309 46.6881 152.258 36.8308 135.909 30.3414C124.017 25.6214 116.728 22.3681 116.73 20.8548C116.73 20.3681 117.484 20.0614 119.08 19.9441C119.18 19.9361 119.287 19.9321 119.401 19.9321C126.733 19.9321 161.601 35.0895 161.601 35.0895C161.601 35.0895 138.793 20.2441 138.8 16.6468C138.801 16.4894 138.845 16.3534 138.937 16.2414C139.075 16.0734 139.323 15.9948 139.669 15.9948C144.849 15.9948 171.808 33.5508 171.808 33.5508C171.808 33.5508 160.573 20.7348 160.569 17.7068C160.569 17.3001 160.77 17.0708 161.226 17.0708C161.457 17.0708 161.753 17.1294 162.12 17.2534C168.648 19.4574 180.399 33.8628 185.44 38.5348C189.096 41.9241 191.805 43.7881 194.959 44.8641C198.512 46.7974 200.513 45.7854 206.246 47.2934C209.757 48.2174 211.46 50.1508 212.26 52.4228C211.916 53.0988 211.096 53.6721 209.9 54.1121C207.387 55.0361 204.164 55.5748 200.664 55.5748Z" fill="#154580"/>
<path d="M122.341 134.58C115.369 128.9 104.887 125.52 96.1159 123.537C87.3425 121.556 78.3719 120.521 69.6425 118.363C68.7959 118.153 67.8849 117.891 67.3699 117.187C66.0516 115.387 67.9407 113.153 69.6305 112.597C70.7572 112.227 71.9839 112.119 73.0172 111.535C74.0012 110.977 74.7065 110.044 75.5519 109.292C77.2199 107.808 79.3625 107.069 81.3625 106.161C83.4758 105.2 85.1145 103.691 87.4185 103.181C90.4012 102.521 93.4118 103.28 96.4319 104.039C99.2665 104.752 102.108 105.464 104.939 105.003C109.241 104.3 113.007 100.943 117.356 101.253C121.647 101.561 124.835 105.344 126.865 109.136C128.432 112.061 129.072 114.405 131.115 117.051C133.14 119.675 139.519 125.835 150.735 134.105C150.361 135.315 137.22 149.779 137.22 149.779C134.089 145.779 126.015 137.572 122.341 134.58Z" fill="#F47089"/>
<path d="M86.7665 121.701C89.5798 114.944 95.1985 111.181 108.832 112.923C122.464 114.663 126.14 112.923 127.887 111.199C127.172 109.781 128.881 100.393 123.44 98.1295C118.592 96.1135 116.871 98.6028 108.832 100.328C101.636 101.872 97.8812 101.055 91.0052 100.236C85.8865 99.6268 79.0358 99.0175 67.7453 99.3841C41.1245 100.248 34.4885 107.363 29.7109 110.395C24.9328 113.425 -2.6099 144.456 0.201038 150.92C3.01197 157.385 15.0969 147.831 36.7396 137.429C58.3812 127.029 71.0252 121.433 86.7665 121.701Z" fill="#26B6A6"/>
<path d="M3.53027 153.024C1.9448 153.024 0.836533 152.381 0.201066 150.92C0.0650661 150.608 9.91555e-09 150.237 9.91555e-09 149.816C-0.000533323 142.147 21.5141 117.423 28.3516 111.459C25.1104 114.287 18.5719 121.331 12.5896 128.775C25.8563 118.415 41.7412 110.691 56.238 106.243C63.4995 104.015 71.1412 103.335 78.0785 103.335C85.4225 103.335 91.9745 104.096 96.4519 104.588C98.0199 104.761 99.5692 104.84 101.089 104.84C108.005 104.84 114.332 103.2 119.256 101.233C122.212 100.053 123.249 98.9495 123.248 98.1028C123.248 98.0881 123.248 98.0721 123.248 98.0575C122.049 97.5815 121.04 97.3855 120.071 97.3855C117.237 97.3855 114.739 99.0614 108.832 100.328C105.871 100.964 103.492 101.199 101.239 101.199C98.0172 101.199 95.0519 100.717 91.0052 100.236C86.9599 99.7548 81.8332 99.2735 74.2892 99.2735C72.2865 99.2735 70.1132 99.3081 67.7453 99.3841C41.1245 100.248 34.4885 107.363 29.7109 110.395C29.7068 110.396 29.7032 110.399 29.6989 110.401C29.7032 110.399 29.7068 110.396 29.7109 110.395C34.4885 107.363 41.1245 100.248 67.7453 99.3841C70.1132 99.3081 72.2865 99.2735 74.2892 99.2735C81.8332 99.2735 86.9599 99.7548 91.0052 100.236C95.0519 100.717 98.0172 101.199 101.239 101.199C103.492 101.199 105.871 100.964 108.832 100.328C114.743 99.0601 117.237 97.3775 120.072 97.3775C121.092 97.3775 122.157 97.5961 123.44 98.1294C128.881 100.393 127.172 109.781 127.887 111.199C126.652 112.417 124.455 113.644 118.459 113.644C115.971 113.644 112.829 113.432 108.832 112.923C106.591 112.636 104.568 112.499 102.737 112.499C93.4292 112.499 89.1172 116.055 86.7679 121.701C86.7665 121.701 86.7665 121.701 86.7665 121.701C86.4052 121.696 86.0479 121.693 85.6892 121.693C70.4412 121.693 57.8849 127.268 36.7396 137.429C19.9869 145.48 8.96093 153.024 3.53027 153.024ZM28.3599 111.452C28.3609 111.451 28.3631 111.449 28.3641 111.448C28.3631 111.449 28.3609 111.451 28.3599 111.452ZM29.6745 110.417C29.6756 110.417 29.6765 110.416 29.6781 110.415C29.6765 110.416 29.6756 110.417 29.6745 110.417ZM29.6869 110.409C29.6896 110.408 29.6927 110.405 29.6953 110.404C29.6923 110.405 29.6896 110.408 29.6869 110.409Z" fill="#1875E8"/>
<path d="M123.248 98.0575C118.549 96.1895 116.76 98.6268 108.832 100.328C101.636 101.872 97.8812 101.055 91.0052 100.236C85.8865 99.6268 79.0359 99.0175 67.7453 99.3841C41.1245 100.248 34.4885 107.363 29.7109 110.395C27.3751 111.876 19.6011 120.051 12.5896 128.775C25.8563 118.415 41.7412 110.691 56.238 106.243C71.1879 101.656 87.7465 103.632 96.4519 104.588C105.155 105.547 113.251 103.632 119.256 101.233C122.265 100.032 123.285 98.9108 123.248 98.0575Z" fill="#26B6A6"/>
<path d="M12.5896 128.775C19.6011 120.051 27.3751 111.876 29.7109 110.395C34.4885 107.363 41.1245 100.248 67.7453 99.3841C70.1132 99.3081 72.2865 99.2734 74.2892 99.2734C81.8332 99.2734 86.9599 99.7548 91.0052 100.236C95.0519 100.717 98.0172 101.199 101.239 101.199C103.492 101.199 105.871 100.964 108.832 100.328C114.739 99.0614 117.237 97.3855 120.071 97.3855C121.04 97.3855 122.049 97.5815 123.248 98.0575C123.248 98.0721 123.248 98.0881 123.248 98.1028C123.249 98.9494 122.212 100.053 119.256 101.233C114.332 103.2 108.005 104.84 101.089 104.84C99.5692 104.84 98.0199 104.761 96.4519 104.588C91.9745 104.096 85.4225 103.335 78.0785 103.335C71.1412 103.335 63.4995 104.015 56.238 106.243C41.7412 110.691 25.8563 118.415 12.5896 128.775Z" fill="#154580"/>
<path d="M224.806 160.672C215.072 156.092 212.282 152.592 210.972 147.919C208.177 137.953 202.67 113.471 197.269 86.8215C199.849 89.7868 216.752 86.3588 217.402 82.8921C230.017 110.543 235.95 118.32 237.104 134.533C248.412 137.221 270.989 142.052 277.792 144.145C296.521 149.908 301.536 161.144 307.305 171.232L294.224 191.969C275.809 181.567 234.54 165.252 224.806 160.672Z" fill="#273E47"/>
<path d="M225.829 143.259C225.829 143.259 226.044 133.42 236.461 128.909C236.749 130.693 236.963 132.549 237.104 134.533C228.548 137.469 225.829 143.259 225.829 143.259Z" fill="#1F3239"/>
<path d="M193.53 167.147C193.53 167.147 224.01 164.013 241.108 161.945C257 147.263 277.509 150.669 285.968 156.039C294.426 161.408 300.373 166.945 300.373 166.945L283.048 207.748C250.268 205.256 200.909 202.557 184.178 197.757C167.672 193.705 130.4 142.712 130.4 142.712C129.904 139.869 140.073 129.92 145.922 129.529C162.638 142.341 187.638 153.395 193.53 167.147Z" fill="#33535F"/>
<path d="M182.404 178.08C182.404 178.08 181.522 170 191.142 163C192.186 164.573 192.764 165.431 193.53 167.147C187.845 168.912 183.361 174.765 182.404 178.08Z" fill="#29444E"/>
<path d="M339.299 133.64C339.299 125.159 332.423 118.284 323.943 118.284C321.025 118.284 318.307 119.112 315.985 120.525L278.991 142.685L278.996 142.695C276.952 143.819 275.321 145.775 274.427 148.491C272.115 155.521 275.596 164.923 282.203 169.489C286.369 172.369 290.783 172.633 294.056 170.673L294.057 170.677L331.245 147.151C336.041 144.553 339.299 139.476 339.299 133.64Z" fill="#26B6A6"/>
<path d="M289.373 171.937C287.077 171.937 284.599 171.147 282.203 169.489C276.976 165.877 273.707 159.24 273.712 153.144C273.713 151.533 273.944 149.96 274.427 148.491C275.321 145.775 276.952 143.819 278.996 142.695L278.991 142.685L285.24 138.941C285.233 138.981 283.761 146.633 288.312 155.173C290.899 160.029 294.528 163.116 297.128 164.856C296.868 166.237 296.623 167.681 296.387 169.203L294.057 170.677L294.056 170.673C294.021 170.693 293.988 170.713 293.953 170.733L293.831 170.797C293.828 170.8 293.827 170.803 293.825 170.807C292.491 171.552 290.976 171.937 289.373 171.937ZM298.449 158.972C296.779 157.363 295.048 155.209 293.555 152.348C288.807 143.259 290.493 135.796 290.493 135.796L286.545 138.16L300.764 129.643C300.692 130.089 299.66 137.047 304.072 145.329C304.164 145.5 304.256 145.669 304.351 145.836C303.211 147.219 302.2 148.856 301.329 150.795C300.148 153.42 299.223 156.083 298.449 158.972ZM309.003 141.892C304.78 133.404 305.933 126.927 306.016 126.497L315.985 120.525C318.307 119.112 321.025 118.284 323.943 118.284C326.448 118.284 328.813 118.884 330.903 119.948C330.377 120.319 328.912 121.352 328.503 121.641C327.245 122.527 326.613 124.039 326.612 125.755C326.611 127.392 327.185 129.215 328.34 130.853C330 133.209 332.42 134.563 334.564 134.563C335.476 134.563 336.339 134.317 337.071 133.801C337.431 133.548 338.603 132.723 339.239 132.273C339.279 132.724 339.299 133.18 339.299 133.64C339.299 134.404 339.243 135.155 339.136 135.888C332.357 136.989 321.972 138.691 321.972 138.691C316.965 138.981 312.604 139.811 309.003 141.892Z" fill="#54B1FF"/>
<path d="M285.24 138.941C285.24 138.941 283.749 146.611 288.312 155.173C292.786 163.573 300.377 166.677 300.377 166.677L305.532 163.417C305.532 163.417 298.339 161.508 293.555 152.348C288.807 143.259 290.493 135.796 290.493 135.796L285.24 138.941Z" fill="#33535F"/>
<path d="M300.768 129.62C300.768 129.62 299.509 136.767 304.072 145.329C308.548 153.729 316.095 156.735 316.095 156.735L321.242 153.479C321.242 153.479 314.1 151.665 309.315 142.504C304.567 133.415 306.02 126.475 306.02 126.475L300.768 129.62Z" fill="#33535F"/>
<path d="M339.715 122.839C337.348 119.48 333.44 118.161 330.984 119.892C330.551 120.197 328.936 121.336 328.503 121.641C326.047 123.371 325.975 127.496 328.34 130.853C330.707 134.212 334.615 135.532 337.071 133.801C337.504 133.496 339.119 132.357 339.553 132.052C342.008 130.321 342.081 126.197 339.715 122.839Z" fill="#26B6A6"/>
<path d="M334.564 134.563C332.42 134.563 330 133.209 328.34 130.853C327.185 129.215 326.61 127.392 326.612 125.755C326.613 124.039 327.245 122.527 328.502 121.641C328.936 121.336 330.55 120.197 330.984 119.892C329.726 120.777 329.094 122.289 329.093 124.005C329.093 125.643 329.666 127.465 330.822 129.105C332.482 131.46 334.902 132.813 337.046 132.813C337.958 132.813 338.82 132.568 339.553 132.052C340.809 131.167 341.442 129.655 341.442 127.939C341.442 129.655 340.809 131.167 339.553 132.052C339.118 132.357 337.504 133.496 337.07 133.801C336.338 134.317 335.476 134.563 334.564 134.563ZM331.034 119.856C331.037 119.855 331.04 119.853 331.042 119.851C331.04 119.853 331.037 119.855 331.034 119.856ZM331.053 119.844C331.77 119.36 332.606 119.131 333.488 119.131C332.606 119.131 331.77 119.36 331.053 119.844ZM333.5 119.131C333.497 119.131 333.493 119.131 333.49 119.131C333.493 119.131 333.497 119.131 333.5 119.131Z" fill="#154580"/>
<path d="M339.714 122.839C342.081 126.197 342.008 130.321 339.553 132.052C337.098 133.783 333.189 132.463 330.822 129.105C328.456 125.747 328.528 121.621 330.984 119.892C333.44 118.161 337.348 119.48 339.714 122.839Z" fill="#26B6A6"/>
<path d="M337.047 132.813C334.903 132.813 332.483 131.46 330.823 129.105C329.667 127.465 329.093 125.643 329.093 124.005C329.095 122.289 329.727 120.777 330.984 119.892C331.716 119.375 332.579 119.131 333.491 119.131C334.249 119.131 335.04 119.299 335.821 119.621C335.924 119.805 336.028 119.985 336.135 120.161C335.783 120.409 333.908 121.731 333.664 121.903C332.931 122.42 332.561 123.301 332.561 124.303C332.56 125.257 332.895 126.321 333.568 127.277C334.537 128.652 335.948 129.44 337.199 129.44C337.731 129.44 338.233 129.297 338.661 128.996C338.915 128.817 340.911 127.412 341.164 127.233C341.243 127.177 341.319 127.117 341.389 127.052C341.425 127.352 341.444 127.648 341.443 127.939C341.443 129.655 340.809 131.167 339.553 132.052C338.82 132.568 337.959 132.813 337.047 132.813Z" fill="#1875E8"/>
<path d="M341.257 121.859C339.877 119.9 337.597 119.131 336.165 120.14C335.912 120.319 333.916 121.725 333.664 121.903C332.231 122.912 332.188 125.319 333.568 127.277C334.949 129.236 337.228 130.005 338.661 128.996C338.914 128.817 340.911 127.412 341.164 127.233C342.596 126.224 342.637 123.817 341.257 121.859Z" fill="#26B6A6"/>
<path d="M337.198 129.44C335.948 129.44 334.537 128.652 333.568 127.277C332.894 126.321 332.56 125.257 332.561 124.303C332.561 123.301 332.93 122.42 333.664 121.903C333.908 121.731 335.782 120.409 336.134 120.161C335.421 120.681 335.062 121.552 335.062 122.54C335.062 123.495 335.397 124.557 336.07 125.513C337.04 126.888 338.45 127.677 339.701 127.677C340.233 127.677 340.736 127.535 341.164 127.233C340.91 127.412 338.914 128.817 338.661 128.996C338.233 129.297 337.73 129.44 337.198 129.44Z" fill="#154580"/>
<path d="M341.257 121.859C342.637 123.817 342.596 126.224 341.164 127.233C339.73 128.243 337.452 127.473 336.07 125.513C334.69 123.556 334.732 121.149 336.165 120.14C337.597 119.131 339.877 119.9 341.257 121.859Z" fill="#26B6A6"/>
<path d="M339.701 127.677C338.45 127.677 337.04 126.888 336.07 125.513C335.397 124.557 335.062 123.495 335.062 122.54C335.062 121.552 335.421 120.681 336.134 120.161C336.9 121.435 337.739 122.495 338.664 123.445C339.735 124.544 340.72 125.725 341.563 126.879C341.444 127.009 341.312 127.129 341.164 127.233C340.736 127.535 340.233 127.677 339.701 127.677Z" fill="#1875E8"/>
<path d="M412.184 132.139L402.176 133.748C397 134.58 392.109 131.044 391.277 125.867L381.248 63.5468L385.765 62.8215L395.793 125.14C396.227 127.827 398.764 129.663 401.451 129.231L411.457 127.62L412.184 132.139Z" fill="#26B6A6"/>
<path d="M400.661 133.869C396.076 133.869 392.027 130.536 391.277 125.867L390.725 122.436C391.693 121.915 392.564 121.208 393.279 120.345C393.859 119.647 394.319 118.867 394.651 118.039L395.793 125.14C396.184 127.563 398.285 129.293 400.664 129.293C400.924 129.293 401.187 129.272 401.451 129.231L411.457 127.62L411.459 127.628C411.127 127.681 410.829 127.955 410.645 128.436C410.527 128.747 410.471 129.108 410.471 129.48C410.472 130.255 410.719 131.081 411.159 131.62C411.443 131.971 411.761 132.141 412.06 132.141C412.101 132.141 412.143 132.139 412.183 132.132L412.184 132.139L402.176 133.748C401.668 133.829 401.161 133.869 400.661 133.869ZM390.099 89.7481C388.499 87.9135 386.703 86.9415 384.816 85.7161L381.248 63.5468L381.255 63.5455C381.308 63.8788 381.581 64.1761 382.061 64.3601C382.372 64.4774 382.731 64.5348 383.101 64.5348C383.879 64.5348 384.707 64.2868 385.245 63.8481C385.595 63.5641 385.765 63.2468 385.767 62.9495C385.768 62.9068 385.764 62.8641 385.757 62.8228L385.765 62.8215L390.099 89.7481Z" fill="#1875E8"/>
<path d="M411.159 131.62C411.807 132.419 412.629 132.285 412.996 131.324C413.363 130.364 413.133 128.937 412.484 128.14C411.836 127.341 411.012 127.475 410.645 128.436C410.278 129.396 410.508 130.823 411.159 131.62Z" fill="#26B6A6"/>
<path d="M412.06 132.141C411.761 132.141 411.443 131.971 411.159 131.62C410.719 131.081 410.472 130.255 410.471 129.48C410.471 129.108 410.527 128.747 410.645 128.436C410.851 127.897 411.2 127.619 411.581 127.619C411.88 127.619 412.199 127.789 412.484 128.14C412.923 128.679 413.169 129.505 413.171 130.28C413.171 130.652 413.115 131.013 412.996 131.324C412.791 131.863 412.441 132.141 412.06 132.141Z" fill="#154580"/>
<path d="M381.766 62.5215C380.968 63.1708 381.101 63.9935 382.061 64.3601C383.022 64.7268 384.448 64.4975 385.245 63.8481C386.044 63.1988 385.91 62.3748 384.949 62.0095C383.989 61.6428 382.562 61.8722 381.766 62.5215Z" fill="#26B6A6"/>
<path d="M383.101 64.5348C382.73 64.5348 382.372 64.4774 382.061 64.3601C381.521 64.1534 381.242 63.8028 381.245 63.4201C381.246 63.1228 381.417 62.8055 381.766 62.5215C382.305 62.0815 383.133 61.8348 383.91 61.8348C384.28 61.8348 384.64 61.8908 384.949 62.0095C385.49 62.2148 385.769 62.5655 385.766 62.9495C385.765 63.2468 385.594 63.5641 385.245 63.8481C384.706 64.2868 383.878 64.5348 383.101 64.5348Z" fill="#0B7465"/>
<path d="M490.604 161.993C490.326 161.127 489.71 160.425 489.109 159.751C486.565 156.904 483.912 154.031 480.525 152.309C475.976 149.999 463.116 150.388 458.078 151.293C453.338 152.144 407.398 163.711 407.398 163.711C407.398 163.711 396.329 156.376 381.626 145.327C367.426 134.655 367.292 133.248 358.464 133.312L368.676 165.329C368.676 165.329 388.002 176.393 396.665 180.963C403.257 184.44 405.728 185.023 412.454 182.977C418.37 181.179 452.83 166.384 454.89 167.915C460.482 170.381 466.696 170.153 471.381 170.945C475.597 171.656 477.95 171.695 476.966 169.863C475.729 167.563 473.009 166.271 470.841 165.072C470.6 164.939 470.336 164.776 470.268 164.505C470.197 164.22 470.388 163.919 470.64 163.769C470.89 163.62 471.192 163.589 471.481 163.563C476.856 163.1 482.146 163.792 487.402 164.752C488.286 164.913 489.288 165.048 490.008 164.495C490.73 163.941 490.881 162.86 490.604 161.993Z" fill="#F47089"/>
<path d="M442.7 154.924C441.425 160.272 441.517 165.712 444.812 170.552C444.812 170.552 421.384 179.897 413.883 182.977C406.383 186.057 405.328 185.588 396.655 181.72C387.981 177.852 365.488 165.077 365.488 165.077L357.024 133.313C357.024 133.313 361.983 132.531 365.488 133.625C368.995 134.723 383.547 146.325 391.8 152.068C400.053 157.812 407.437 162.851 407.437 162.851L442.7 154.924Z" fill="#26B6A6"/>
<path d="M406.554 184.995C403.997 184.995 401.529 183.895 396.654 181.72C394.414 180.721 391.254 179.129 387.798 177.317C382.948 174.773 377.512 171.793 373.221 169.412C373.288 166.845 373.008 164.253 372.437 161.76C370.092 151.527 368.03 146.264 364.306 139.551C367.088 140.165 370.364 140.476 373.2 140.476C374.149 140.476 375.049 140.441 375.864 140.372C381.214 144.284 387.401 149.008 391.8 152.068C397.746 156.207 403.241 159.979 405.849 161.765C405.661 161.636 405.458 161.497 405.242 161.349C399.436 164.031 398.654 169.196 398.654 169.196C398.654 169.196 402.488 164.52 407.437 162.851H407.436H407.437L442.7 154.924C442.224 156.919 441.938 158.927 441.94 160.912C441.94 164.248 442.746 167.517 444.812 170.552C444.812 170.552 421.384 179.897 413.882 182.977C410.597 184.325 408.549 184.995 406.554 184.995Z" fill="#1875E8"/>
<path d="M407.436 162.851C407.435 162.849 407.435 162.849 407.435 162.849C407.435 162.849 407.435 162.849 407.436 162.851ZM407.435 162.849C407.392 162.82 406.821 162.431 405.849 161.765C406.817 162.428 407.392 162.82 407.435 162.849Z" fill="#7FD3C2"/>
<path d="M398.654 169.196C398.654 169.196 399.436 164.031 405.242 161.349C405.458 161.497 405.661 161.636 405.849 161.765C406.821 162.431 407.392 162.82 407.434 162.849C407.434 162.849 407.434 162.849 407.436 162.851H407.437C402.488 164.52 398.654 169.196 398.654 169.196Z" fill="#154580"/>
<path d="M344.7 134.995C342.692 135.296 321.972 138.691 321.972 138.691C315.921 140.473 303.997 161.252 300.202 166.788C294.71 172.179 290.489 171.879 290.489 171.879C289.783 173.165 288.975 174.792 288.281 176.419C282.48 189.997 282.217 199.105 283.048 207.748C289.463 209.368 302.165 210.524 312.933 209.757C323.091 209.033 338.408 203.687 345.417 198.496C349.969 195.124 351.941 193.489 355.684 190.472C371.416 187.227 375.106 173.413 372.437 161.76C369.56 149.2 367.108 144.129 361.488 134.672C360.087 132.312 355.459 133.373 344.7 134.995Z" fill="#33535F"/>
<path d="M300.373 209.876C292.336 210.516 283.048 207.74 283.048 207.74C283.048 207.74 279.631 195.219 286.631 178.945C287.805 176.229 288.98 173.897 290.155 171.913C291.559 171.792 292.885 171.38 294.06 170.679L299.87 167.003C294.806 193.724 300.541 208.899 300.373 209.876Z" fill="#1875E8"/>
<path d="M293.82 170.816C293.822 170.812 293.824 170.809 293.825 170.807C293.868 170.783 293.91 170.759 293.953 170.733L294.06 170.679C293.98 170.725 293.901 170.772 293.82 170.816Z" fill="#BAC7C8"/>
<path d="M293.825 170.807C293.826 170.803 293.828 170.8 293.83 170.797L293.953 170.733C293.91 170.759 293.868 170.783 293.825 170.807Z" fill="#E0F4EF"/>
<path d="M294.06 170.679L296.387 169.205V169.207L294.06 170.679Z" fill="#BAC7C8"/>
<path d="M291.46 209.493C291.394 209.485 291.331 209.476 291.267 209.468C290.892 209.415 290.524 209.357 290.164 209.3L289.938 209.264C288.942 209.101 288.022 208.924 287.189 208.751C285.597 194.023 288.88 180.505 293.82 170.816C293.901 170.772 293.98 170.725 294.06 170.679L296.386 169.207C296.384 169.22 296.382 169.232 296.38 169.247C294.338 173.984 292.566 179.791 291.77 186.499C290.949 193.421 291.401 200.573 291.928 205.368C291.761 206.824 291.604 208.2 291.46 209.493Z" fill="#A1DFD6"/>
<path d="M351.325 189.472C346.987 192.131 340.485 192.231 334.575 190.063C328.664 187.896 325.216 181.097 325.412 175.779C325.412 175.779 322.068 187.925 332.801 192.569C344.205 197.504 351.087 190.943 351.325 189.472Z" fill="#273E47"/>
<path d="M344.402 132.939C344.653 131.319 342.093 126.967 338.664 123.445C335.573 120.271 333.452 115.887 331.794 106.373C330.596 99.4935 322.257 100.592 317.882 95.6201C315.93 93.4001 314.52 90.5588 314.613 87.6054C314.738 83.5655 317.606 79.8215 317.032 75.8188C316.665 73.2641 314.934 71.1108 313.008 69.3934C311.082 67.6748 308.896 66.2441 307.145 64.3468C305.394 62.4508 304.086 59.9108 304.468 57.3588C304.829 54.9508 306.601 53.0028 308.486 51.4628C317.308 44.2561 331.312 43.3374 341.994 46.0308C351.532 48.4361 360.213 54.1108 366.241 61.8841C369.533 66.1255 372.025 70.9241 375 75.3948C377.281 78.8241 379.905 82.1188 383.22 84.6095C385.956 86.6681 388.565 87.5948 390.753 90.5654C394.488 95.6401 394.226 101.475 391.545 107.165C390.957 108.411 389.173 110.695 387.349 111.711L344.402 132.939Z" fill="#17282F"/>
<path d="M346.717 117.944L343.87 136.387C343.87 136.387 344.227 143.376 348.721 149.999C351.155 153.587 356.869 157.905 359.604 154.715C361.27 152.603 363.491 141.08 363.491 141.08L363.825 139.388L346.717 117.944Z" fill="#F47089"/>
<path d="M384.178 94.5908C384.178 94.5908 382.156 98.5575 371.67 102.179C362.764 105.256 358.521 106.752 351.766 116.955C349.008 120.588 348.946 116.333 348.062 110.655C347.912 108.796 347.39 107.415 346.024 106.259C344.384 104.868 339.345 104.488 337.682 109.863C336.418 113.947 338.76 118.367 339.973 119.727C341.509 121.449 343.401 121.717 344.293 121.677C346.356 121.588 347.233 120.044 347.241 120.007L347.961 119.451L349.609 125.255C350.325 128.492 351.816 131.385 353.437 134.22C355.368 136.025 360.721 138.84 361.793 138.843L363.476 139.353C368.594 140.651 375.884 140.833 378.753 139.852C381.621 138.872 386.798 136.215 387.28 119.149C387.862 98.5121 384.608 95.3801 384.178 94.5908Z" fill="#F47089"/>
<path d="M349.038 123.084C349.038 123.084 348.517 130.792 352.47 135.464C353.254 136.391 356.834 140.551 362.781 141.869L363.813 139.435C363.813 139.435 361.397 138.672 359.597 137.845C357.796 137.021 356.136 135.941 354.908 135.067C350.372 131.836 349.665 124.561 349.038 123.084Z" fill="#C35363"/>
<path d="M362.509 139.152C362.509 139.152 360.279 151.803 359.02 154.097C358.24 155.523 355.705 155.376 354.179 154.968C354.179 154.968 357.815 157.065 359.604 154.715C361.392 152.365 363.813 139.435 363.813 139.435L362.509 139.152Z" fill="#C35363"/>
<path d="M369.56 115.147C369.573 116.385 368.619 117.399 367.427 117.411C366.233 117.421 365.255 116.425 365.239 115.187C365.224 113.947 366.179 112.933 367.372 112.923C368.564 112.912 369.544 113.907 369.56 115.147Z" fill="#17282F"/>
<path d="M368.93 107.597L363.94 109.316C363.497 107.892 364.254 106.352 365.632 105.877C367.01 105.403 368.486 106.173 368.93 107.597Z" fill="#17282F"/>
<path d="M385.937 108.679L380.906 106.952C381.334 105.535 382.808 104.772 384.197 105.248C385.587 105.725 386.365 107.26 385.937 108.679Z" fill="#17282F"/>
<path d="M385.64 113.927C385.656 115.167 384.7 116.179 383.507 116.191C382.316 116.201 381.336 115.205 381.321 113.967C381.305 112.728 382.261 111.713 383.453 111.703C384.647 111.692 385.625 112.687 385.64 113.927Z" fill="#17282F"/>
<path d="M386.917 120.865L386.033 120.896C383.21 121.039 382.252 119.353 381.001 116.812C379.954 114.696 378.316 112.621 375.876 112.732C373.434 112.855 372 115.096 371.17 117.293C370.181 119.949 367.774 121.789 364.938 121.932L359.858 122.188C356.416 122.348 353.561 119.529 353.693 116.084C353.792 113.593 353.916 110.267 354.169 108.455C354.774 104.193 359.724 102.159 375.317 101.399C390.91 100.627 390.408 102.452 391.425 106.632C391.842 108.357 392.282 111.575 392.614 113.992C393.097 117.512 390.466 120.687 386.917 120.865ZM395.189 113.637L395.181 113.479C394.83 110.971 394.394 107.845 393.96 106.015C392.31 99.2602 389.737 98.0815 375.185 98.7868C360.634 99.5068 352.573 101.196 351.585 108.096C351.325 110.013 351.197 113.273 351.092 115.897L351.096 115.989C351.004 118.363 351.928 120.683 353.612 122.344C355.296 124.017 357.614 124.905 359.99 124.787L365.069 124.531C368.882 124.352 372.234 121.869 373.612 118.215C374.008 117.164 374.832 115.389 376.005 115.331C377.166 115.272 378.177 116.953 378.665 117.961C380.389 121.472 382.337 123.688 386.165 123.495L387.049 123.464C389.462 123.341 391.733 122.209 393.278 120.345C394.825 118.483 395.522 116.04 395.189 113.637Z" fill="#26B6A6"/>
<path d="M359.567 124.797C357.341 124.797 355.196 123.919 353.612 122.344C352.006 120.76 351.093 118.579 351.089 116.323C351.089 116.212 351.092 116.101 351.096 115.989L351.092 115.897C351.197 113.273 351.325 110.013 351.585 108.096C352.573 101.196 360.635 99.5068 375.185 98.7868C377.538 98.6735 379.577 98.6081 381.352 98.6081C390.544 98.6081 392.577 100.353 393.96 106.015C394.395 107.845 394.83 110.971 395.181 113.479L395.189 113.637C395.244 114.031 395.27 114.427 395.27 114.82C395.27 115.927 395.058 117.019 394.65 118.039C394.318 118.867 393.858 119.647 393.278 120.345C392.564 121.208 391.693 121.915 390.725 122.436C389.601 123.041 388.345 123.399 387.049 123.464L386.165 123.495C386.011 123.503 385.858 123.507 385.71 123.507C382.181 123.507 380.319 121.329 378.665 117.961C378.187 116.971 377.201 115.329 376.064 115.329C376.045 115.329 376.025 115.329 376.005 115.331C374.832 115.389 374.008 117.164 373.612 118.215C372.234 121.869 368.882 124.352 365.069 124.531L359.991 124.787C359.849 124.793 359.708 124.797 359.567 124.797ZM353.689 116.319C353.692 119.563 356.341 122.195 359.58 122.195C359.672 122.195 359.765 122.192 359.859 122.188L364.938 121.932C367.774 121.789 370.181 119.949 371.17 117.293C372 115.096 373.434 112.855 375.876 112.732C375.938 112.729 376 112.728 376.061 112.728C378.399 112.728 379.981 114.749 381.001 116.812C382.202 119.253 383.134 120.904 385.708 120.904C385.813 120.904 385.923 120.901 386.033 120.896L386.917 120.865C390.182 120.701 392.669 118.001 392.672 114.829C392.672 114.553 392.653 114.273 392.614 113.992C392.282 111.575 391.843 108.357 391.425 106.632C390.764 103.912 390.746 102.189 386.517 101.531C385.22 101.328 383.528 101.227 381.297 101.227C379.625 101.227 377.65 101.284 375.317 101.399C374.712 101.429 374.122 101.46 373.549 101.493C359.345 102.32 354.75 104.359 354.169 108.455C353.916 110.267 353.792 113.593 353.693 116.084C353.691 116.163 353.689 116.241 353.689 116.319Z" fill="#1875E8"/>
<path d="M387.216 120.843C387.242 120.295 387.264 119.731 387.28 119.149C387.358 116.368 387.368 113.905 387.322 111.724L387.349 111.711C387.852 111.431 388.352 111.055 388.825 110.629L390.274 119.643C389.414 120.297 388.368 120.729 387.216 120.843Z" fill="#549F97"/>
<path d="M390.274 119.643L388.825 110.629C390.066 109.515 391.12 108.067 391.545 107.165C391.925 108.964 392.313 111.805 392.614 113.992C392.653 114.273 392.672 114.553 392.672 114.829C392.67 116.767 391.742 118.528 390.274 119.643Z" fill="#136662"/>
<path d="M353.774 114.077C353.862 112.011 353.98 109.809 354.169 108.455C354.75 104.359 359.345 102.32 373.549 101.493C372.956 101.723 372.329 101.952 371.67 102.179C363.678 104.94 359.441 106.429 353.774 114.077ZM387.322 111.724C387.232 107.255 386.917 103.963 386.517 101.531C390.746 102.189 390.764 103.912 391.425 106.632C391.465 106.797 391.505 106.975 391.545 107.165C391.12 108.067 390.066 109.515 388.825 110.629C388.352 111.055 387.852 111.431 387.349 111.711L387.322 111.724Z" fill="#1F323A"/>
<path d="M359.58 122.195C356.341 122.195 353.692 119.563 353.689 116.319C353.689 116.241 353.69 116.163 353.693 116.084C353.718 115.456 353.745 114.775 353.774 114.077C359.441 106.429 363.678 104.94 371.67 102.179C372.329 101.952 372.956 101.723 373.549 101.493C374.122 101.46 374.712 101.429 375.317 101.399C377.65 101.284 379.625 101.227 381.297 101.227C383.528 101.227 385.22 101.328 386.517 101.531C386.917 103.963 387.232 107.255 387.322 111.724C387.368 113.905 387.358 116.368 387.28 119.149C387.264 119.731 387.242 120.295 387.216 120.843C387.117 120.852 387.017 120.86 386.917 120.865L386.033 120.896C385.922 120.901 385.813 120.904 385.708 120.904C383.134 120.904 382.202 119.253 381.001 116.812C379.981 114.749 378.398 112.728 376.061 112.728C376 112.728 375.938 112.729 375.876 112.732C373.434 112.855 372 115.096 371.17 117.293C370.181 119.949 367.774 121.789 364.938 121.932L359.858 122.188C359.765 122.192 359.672 122.195 359.58 122.195ZM367.39 112.921C367.384 112.921 367.378 112.921 367.372 112.923C366.178 112.933 365.224 113.947 365.238 115.187C365.254 116.419 366.222 117.411 367.406 117.411C367.413 117.411 367.42 117.411 367.426 117.411C368.618 117.399 369.573 116.385 369.56 115.147C369.544 113.913 368.574 112.921 367.39 112.921ZM383.473 111.703C383.466 111.703 383.46 111.703 383.453 111.703C382.261 111.713 381.305 112.728 381.321 113.967C381.336 115.199 382.305 116.191 383.488 116.191C383.494 116.191 383.501 116.191 383.506 116.191C384.7 116.179 385.656 115.167 385.64 113.927C385.625 112.693 384.657 111.703 383.473 111.703ZM366.461 105.737C366.188 105.737 365.908 105.783 365.632 105.877C364.254 106.352 363.497 107.892 363.94 109.316L368.93 107.597C368.574 106.459 367.56 105.737 366.461 105.737ZM383.354 105.107C382.256 105.107 381.249 105.821 380.906 106.952L385.937 108.679C386.365 107.26 385.586 105.725 384.197 105.248C383.917 105.152 383.633 105.107 383.354 105.107Z" fill="#955866"/>
<path d="M367.407 117.411C366.223 117.411 365.255 116.419 365.239 115.187C365.224 113.947 366.179 112.933 367.372 112.923C367.379 112.921 367.384 112.921 367.391 112.921C368.575 112.921 369.544 113.913 369.56 115.147C369.573 116.385 368.619 117.399 367.427 117.411C367.42 117.411 367.413 117.411 367.407 117.411Z" fill="#1F323A"/>
<path d="M363.94 109.316C363.497 107.892 364.254 106.352 365.632 105.877C365.908 105.783 366.188 105.737 366.461 105.737C367.56 105.737 368.574 106.459 368.93 107.597L363.94 109.316Z" fill="#1F323A"/>
<path d="M385.937 108.679L380.906 106.952C381.249 105.821 382.256 105.107 383.355 105.107C383.633 105.107 383.917 105.152 384.197 105.248C385.587 105.725 386.365 107.26 385.937 108.679Z" fill="#1F323A"/>
<path d="M383.488 116.191C382.305 116.191 381.336 115.199 381.321 113.967C381.305 112.728 382.261 111.713 383.453 111.703C383.46 111.703 383.467 111.703 383.473 111.703C384.657 111.703 385.625 112.693 385.64 113.927C385.656 115.167 384.7 116.179 383.507 116.191C383.501 116.191 383.495 116.191 383.488 116.191Z" fill="#1F323A"/>
<path d="M375.488 115.475L376.595 125.811L383.452 123.428L377.609 116.272C376.871 115.44 376.16 115.099 375.488 115.475Z" fill="#C35363"/>
<path d="M378.437 127.161C376.893 127.24 375.542 127.045 374.27 126.851C372.29 126.547 370.504 126.244 368.49 126.975C365.182 128.173 365.59 135.059 369.822 136.795C372.741 137.991 377.857 138.517 381.217 135.929C384.525 133.381 385.796 126.583 383.562 125.839C381.332 125.095 381.214 127.02 378.437 127.161Z" fill="#26B6A6"/>
<path d="M367.712 135.184C366.761 133.983 366.289 132.412 366.292 130.953C366.294 129.14 367.03 127.504 368.49 126.975C369.413 126.64 370.288 126.521 371.156 126.521C372.181 126.521 373.197 126.687 374.27 126.851C375.344 127.015 376.474 127.18 377.729 127.18C377.96 127.18 378.196 127.173 378.437 127.161C380.768 127.043 381.225 125.668 382.63 125.668C382.9 125.668 383.204 125.719 383.562 125.839C383.948 125.967 384.228 126.273 384.412 126.708C384.292 126.604 384.156 126.525 384.002 126.475C383.644 126.355 383.338 126.304 383.069 126.304C381.664 126.304 381.208 127.679 378.877 127.797C378.637 127.809 378.401 127.816 378.17 127.816C376.916 127.816 375.785 127.651 374.712 127.487C373.638 127.323 372.622 127.157 371.597 127.157C370.729 127.157 369.853 127.276 368.93 127.611C367.47 128.14 366.733 129.776 366.73 131.589C366.729 132.803 367.054 134.093 367.712 135.184Z" fill="#0B7465"/>
<path d="M378.877 127.797C377.333 127.876 375.982 127.681 374.712 127.487C372.73 127.183 370.945 126.88 368.93 127.611C365.621 128.809 366.029 135.695 370.262 137.429C373.18 138.627 378.297 139.152 381.657 136.565C384.965 134.017 386.236 127.219 384.002 126.475C381.77 125.729 381.654 127.656 378.877 127.797Z" fill="#26B6A6"/>
<path d="M375.513 138.42C373.549 138.42 371.655 138.001 370.263 137.429C367.897 136.46 366.727 133.884 366.731 131.589C366.733 129.776 367.471 128.14 368.931 127.611C369.853 127.276 370.729 127.157 371.597 127.157C372.623 127.157 373.639 127.323 374.712 127.487C375.785 127.651 376.916 127.816 378.171 127.816C378.401 127.816 378.637 127.809 378.877 127.797C381.208 127.679 381.664 126.304 383.069 126.304C383.339 126.304 383.644 126.355 384.003 126.475C384.771 126.729 385.124 127.701 385.124 128.969C385.121 131.391 383.828 134.893 381.657 136.565C379.901 137.917 377.664 138.42 375.513 138.42Z" fill="#1875E8"/>
<path d="M381.26 135.161C382.421 133.393 382.314 131.271 381.021 130.421C380.792 130.272 380.038 129.783 379.809 129.632C378.516 128.784 376.526 129.529 375.365 131.297C374.204 133.067 374.312 135.189 375.605 136.037C375.833 136.188 376.588 136.676 376.816 136.827C378.109 137.676 380.1 136.931 381.26 135.161Z" fill="#273E47"/>
<path d="M381.26 135.161C380.1 136.931 378.109 137.676 376.816 136.827C375.522 135.979 375.416 133.856 376.576 132.087C377.737 130.317 379.727 129.572 381.021 130.421C382.315 131.271 382.421 133.393 381.26 135.161Z" fill="#33535F"/>
<path d="M313.521 221.368C318.975 235.248 328.393 257.516 331.161 260.377C336.969 262.551 339.869 267.475 343.592 270.536C346.864 273.228 349.271 274.397 346.995 275.504C344.445 276.741 340.841 274.808 338.373 273.663C338.136 274.067 338.73 275.837 339.938 277.283C340.845 278.369 342.072 279.508 343.164 280.408C345.668 282.476 348.264 284.395 350.968 286.2C351.726 286.705 352.552 287.312 352.692 288.213C352.832 289.115 352.187 289.989 351.378 290.412C350.569 290.833 349.629 290.901 348.72 290.957C344.875 291.199 340.928 291.381 337.252 290.227C332.315 288.676 328.393 284.865 325.347 280.683C322.48 276.747 320.156 272.441 317.445 268.397C315.227 265.091 312.96 261.813 310.761 258.492C306.387 251.885 302.104 245.211 298.017 238.421C296.537 235.961 295.028 233.495 293.753 230.92C292.54 228.469 291.353 226.443 291.265 224.483C291.116 221.205 291.493 217.899 291.941 212.72C292.39 207.541 295.444 181.059 297.113 170.036C300.532 147.463 305.832 141.535 320.157 139.152C327.293 147.029 320.355 176.201 320.355 176.201L313.521 221.368Z" fill="#F47089"/>
<path d="M321.972 138.691C312.553 139.236 305.42 141.692 301.329 150.795C297.237 159.897 296.194 169.436 294.057 187.348C291.917 205.261 290.448 217.689 290.302 221.735C290.158 225.78 290.586 226.647 294.057 233.004C297.526 239.361 312.018 260.377 312.018 260.377C315.268 255.292 320.48 251.097 325.786 250.233L314.085 219.136L323.677 164.231C323.677 164.231 328.356 149.848 321.972 138.691Z" fill="#26B6A6"/>
<path d="M312.019 260.377C312.019 260.377 297.527 239.361 294.057 233.004C290.945 227.305 290.28 226.019 290.279 222.899C290.279 222.539 290.288 222.153 290.302 221.735C290.448 217.689 291.917 205.261 294.057 187.348C296.195 169.436 297.237 159.897 301.329 150.795C305.42 141.692 312.553 139.236 321.972 138.691C324.56 143.213 325.329 148.264 325.331 152.673C325.332 159.144 323.677 164.231 323.677 164.231L314.565 216.387C313.025 215.904 311.567 215.716 310.225 215.716C305.321 215.716 301.988 218.245 301.988 218.245C303.105 217.804 304.984 217.571 306.953 217.571C309.821 217.571 312.884 218.065 314.085 219.136L325.787 250.233C320.48 251.097 315.268 255.292 312.019 260.377Z" fill="#1875E8"/>
<path d="M314.085 219.136L314.565 216.387L314.085 219.136Z" fill="#61C9B6"/>
<path d="M314.085 219.136C312.884 218.065 309.821 217.571 306.953 217.571C304.984 217.571 303.105 217.804 301.988 218.245C301.988 218.245 305.321 215.716 310.225 215.716C311.567 215.716 313.025 215.904 314.565 216.387L314.085 219.136Z" fill="#154580"/>
<path d="M338.909 174.944C335.69 174.944 332.586 174.504 329.718 173.604C323.693 171.713 319.206 168.031 316.736 162.952C311.534 152.24 316.997 136.963 328.917 128.897C329.494 128.508 330.348 129.771 329.773 130.16C318.454 137.817 313.225 152.229 318.11 162.284C320.389 166.977 324.561 170.388 330.173 172.148C338.658 174.809 349.344 173.248 358.765 167.972C377.936 157.236 378.157 134.584 378.157 133.624C378.157 133.024 379.681 133.024 379.681 133.624C379.681 134.619 379.452 158.135 359.509 169.304C352.893 173.009 345.649 174.944 338.909 174.944Z" fill="#17282F"/>
<path d="M418.607 127.881C416.903 127.881 415.523 126.5 415.523 124.797C415.523 123.093 416.903 121.713 418.607 121.713C420.309 121.713 421.691 123.093 421.691 124.797C421.691 126.5 420.309 127.881 418.607 127.881Z" fill="#C3EAE2"/>
</svg>
