<svg width="32" height="32" viewBox="0 0 32 32" fill="none" xmlns="http://www.w3.org/2000/svg">
<path d="M16 32C13.8333 32 11.7604 31.5781 9.78125 30.7344C7.80208 29.8906 6.09896 28.7552 4.67188 27.3281C3.24479 25.901 2.10938 24.1979 1.26562 22.2188C0.421875 20.2396 0 18.1667 0 16C0 13.8333 0.421875 11.7604 1.26562 9.78125C2.10938 7.80208 3.24479 6.09896 4.67188 4.67188C6.09896 3.24479 7.80208 2.10938 9.78125 1.26562C11.7604 0.421875 13.8333 0 16 0C18.1667 0 20.2396 0.421875 22.2188 1.26562C24.1979 2.10938 25.901 3.24479 27.3281 4.67188C28.7552 6.09896 29.8906 7.80208 30.7344 9.78125C31.5781 11.7604 32 13.8333 32 16C32 18.1667 31.5781 20.2396 30.7344 22.2188C29.8906 24.1979 28.7552 25.901 27.3281 27.3281C25.901 28.7552 24.1979 29.8906 22.2188 30.7344C20.2396 31.5781 18.1667 32 16 32ZM25.125 8.21875L23.6875 9.625C24.7708 10.9167 25.474 12.3854 25.7969 14.0312C26.1198 15.6771 26.0521 17.2708 25.5938 18.8125C25.8646 19.1667 26 19.5625 26 20C26 20.5625 25.8021 21.0365 25.4062 21.4219C25.0104 21.8073 24.5417 22 24 22C23.6667 22.4167 23.3542 22.7708 23.0625 23.0625C21.5208 24.6042 19.6719 25.5417 17.5156 25.875C15.3594 26.2083 13.3542 25.8958 11.5 24.9375C11.1042 24.8333 10.7708 24.625 10.5 24.3125C10.4583 24.2917 10.3854 24.25 10.2812 24.1875C10.1771 24.125 10.0938 24.0729 10.0312 24.0312C9.71875 23.8021 9.30208 23.349 8.78125 22.6719C8.26042 21.9948 8 21.4375 8 21C8 20.7292 8.09896 20.4948 8.29688 20.2969C8.49479 20.099 8.72917 20 9 20C9.27083 20 9.50521 20.099 9.70312 20.2969C9.90104 20.4948 10 20.7292 10 21C10.0417 21.2292 10.1875 21.4792 10.4375 21.75C10.8542 21.25 11.375 21 12 21C12.5625 21 13.0365 21.1979 13.4219 21.5938C13.8073 21.9896 14 22.4583 14 23C14 23.2292 13.9583 23.4688 13.875 23.7188C15.1875 24.0938 16.5521 24.1042 17.9688 23.75C19.3854 23.3958 20.6146 22.6979 21.6562 21.6562C21.7396 21.5729 21.9375 21.3333 22.25 20.9375C22.0833 20.6458 22 20.3333 22 20C22 19.5 22.1615 19.0625 22.4844 18.6875C22.8073 18.3125 23.2188 18.0938 23.7188 18.0312C24.0312 16.8646 24.0625 15.6615 23.8125 14.4219C23.5625 13.1823 23.0417 12.0625 22.25 11.0625L20.8438 12.5C21.6979 13.6458 22.0729 14.9583 21.9688 16.4375C21.8646 17.9167 21.2917 19.1875 20.25 20.25C20.2083 20.2917 20.151 20.3385 20.0781 20.3906C20.0052 20.4427 19.9583 20.4792 19.9375 20.5C19.8125 20.9375 19.5729 21.2969 19.2188 21.5781C18.8646 21.8594 18.4583 22 18 22C17.75 22 17.5 21.9479 17.25 21.8438C15.75 22.1562 14.3438 21.9479 13.0312 21.2188C12.3229 20.8229 11.6406 20.25 10.9844 19.5C10.3281 18.75 10 17.9167 10 17C10 16.7292 10.099 16.4948 10.2969 16.2969C10.4948 16.099 10.7292 16 11 16C11.2708 16 11.5052 16.099 11.7031 16.2969C11.901 16.4948 12 16.7292 12 17C12 17.4375 12.3177 17.9531 12.9531 18.5469C13.5885 19.1406 14.0729 19.5208 14.4062 19.6875C14.9062 19.8958 15.4375 20 16 20C16 19.4375 16.1979 18.9635 16.5938 18.5781C16.9896 18.1927 17.4583 18 18 18C18.4375 18 18.8333 18.1354 19.1875 18.4062C19.6875 17.7396 19.9531 17 19.9844 16.1875C20.0156 15.375 19.8229 14.6146 19.4062 13.9062L17.9062 15.4062C17.9688 15.6146 18 15.8125 18 16C18 16.5625 17.8073 17.0365 17.4219 17.4219C17.0365 17.8073 16.5677 18 16.0156 18C15.4635 18 14.9896 17.8073 14.5938 17.4219C14.1979 17.0365 14 16.5677 14 16.0156C14 15.4635 14.1979 14.9896 14.5938 14.5938C14.9896 14.1979 15.4583 14 16 14C16.1667 14 16.3438 14.0312 16.5312 14.0938L23.75 6.84375C21.5208 4.94792 18.9375 4 16 4C13.8333 4 11.8281 4.53646 9.98438 5.60938C8.14062 6.68229 6.68229 8.14062 5.60938 9.98438C4.53646 11.8281 4 13.8333 4 16C4 18.1667 4.53646 20.1719 5.60938 22.0156C6.68229 23.8594 8.14062 25.3177 9.98438 26.3906C11.8281 27.4635 13.8333 28 16 28C18.1667 28 20.1719 27.4635 22.0156 26.3906C23.8594 25.3177 25.3177 23.8594 26.3906 22.0156C27.4635 20.1719 28 18.1667 28 16C28 13.0417 27.0417 10.4479 25.125 8.21875Z" fill="white"/>
</svg>
